<?xml version="1.0" encoding="UTF-8"?>
<svg width="20px" height="20px" viewBox="0 0 20 20" version="1.1" xmlns="http://www.w3.org/2000/svg" xmlns:xlink="http://www.w3.org/1999/xlink">
    <title>close</title>
    <g id="页面-1" stroke="none" stroke-width="1" fill="none" fill-rule="evenodd">
        <g id="6.2.1铸造成功" transform="translate(-946.000000, -204.000000)" fill="#FFFFFF" fill-rule="nonzero">
            <g id="弹窗" transform="translate(450.000000, 180.000000)">
                <g id="编组" transform="translate(496.000000, 24.000000)">
                    <path d="M11.9566108,9.99962029 L19.5945988,2.3629573 C20.1350212,1.82323492 20.1350212,0.947064161 19.5952738,0.406666779 C19.0548764,-0.133755602 18.1787057,-0.133755602 17.6383083,0.406666779 L10.0002953,8.04332977 L2.3636323,0.405316786 C1.82320992,-0.135105595 0.947764157,-0.135105595 0.407341776,0.405316786 C-0.133055605,0.945039171 -0.133055605,1.82118493 0.406666779,2.36160731 L8.04400477,9.99962029 L0.405316786,17.6369583 C-0.135105595,18.1767057 -0.135105595,19.0528264 0.405316786,19.5932238 C0.675515477,19.8634725 1.02948876,19.9985468 1.38343705,19.9985468 C1.73741033,19.9985468 2.09138362,19.8634725 2.36158231,19.5932238 L9.99959529,11.9565608 L17.6369583,19.5945988 C17.907182,19.8648225 18.2611303,19.9998968 18.6151035,19.9998968 C18.9690768,19.9998968 19.3230251,19.8648225 19.5932238,19.5945988 C20.1336712,19.0548514 20.1336712,18.1787057 19.5939238,17.6383083 L11.9566108,9.99962029 Z" id="close"></path>
                </g>
            </g>
        </g>
    </g>
</svg>