<?xml version="1.0" encoding="UTF-8"?>
<svg width="26px" height="26px" viewBox="0 0 26 26" version="1.1" xmlns="http://www.w3.org/2000/svg" xmlns:xlink="http://www.w3.org/1999/xlink">
    <title>discord </title>
    <g id="页面-1" stroke="none" stroke-width="1" fill="none" fill-rule="evenodd" fill-opacity="0.5">
        <g id="1.1首页" transform="translate(-340.000000, -2513.000000)" fill="#FFFFFF" fill-rule="nonzero">
            <g id="footer" transform="translate(0.000000, 2476.000000)">
                <path d="M353,37 C360.179018,37 366,42.8209821 366,50 C366,57.1790179 360.179018,63 353,63 C345.820982,63 340,57.1790179 340,50 C340,42.8209821 345.820982,37 353,37 Z M355.178082,44 L354.986301,44.2286879 L355.239932,44.3125078 C357.393746,45.0494323 358.39726,46.0429556 358.39726,46.0429556 C355.143247,44.1830968 351.320848,44.182762 348.164384,45.628674 C347.657534,45.8715288 347.356164,46.0429556 347.356164,46.0429556 C347.356164,46.0429556 348.493151,44.9143954 350.958904,44.1715456 L350.958904,44.1715456 L350.821918,44 L350.767397,44.0003462 C350.445616,44.0073082 348.747945,44.1115462 346.972603,45.5001039 C346.972603,45.5001039 345,49.2286384 345,53.8285929 C345,53.8285929 346.150685,55.900001 349.178082,56 C349.178082,56 349.684932,55.3571492 350.09589,54.8142974 C348.356164,54.2714457 347.69863,53.1285998 347.69863,53.1285998 C347.90015,53.2756966 348.232449,53.4663755 348.260274,53.4857392 C350.572453,54.8360606 353.856807,55.278467 356.808219,53.9857342 C357.287671,53.8000218 357.821918,53.5285959 358.383562,53.1428854 C358.383562,53.1428854 357.69863,54.3143024 355.90411,54.8428686 C356.315068,55.3857204 356.808219,56 356.808219,56 C359.835616,55.900001 361,53.8285929 361,53.8285929 C361,49.2286384 359.027397,45.5001039 359.027397,45.5001039 C357.252055,44.1115462 355.554384,44.0073082 355.232603,44.0003462 L355.232603,44.0003462 L355.178082,44 Z M355.438356,49.3286374 C356.219178,49.3286374 356.835616,50.0429161 356.835616,50.914336 C356.835616,51.785756 356.219178,52.5000346 355.438356,52.5000346 C354.671233,52.5000346 354.041096,51.785756 354.041096,50.914336 C354.041096,50.0429161 354.657534,49.3286374 355.438356,49.3286374 Z M350.438356,49.3286374 C351.219178,49.3286374 351.849315,50.0429161 351.835616,50.914336 C351.835616,51.785756 351.219178,52.5000346 350.438356,52.5000346 C349.671233,52.5000346 349.041096,51.785756 349.041096,50.914336 C349.041096,50.0429161 349.657534,49.3286374 350.438356,49.3286374 Z" id="discord-"></path>
            </g>
        </g>
    </g>
</svg>