<?xml version="1.0" encoding="UTF-8"?>
<svg width="26px" height="26px" viewBox="0 0 26 26" version="1.1" xmlns="http://www.w3.org/2000/svg" xmlns:xlink="http://www.w3.org/1999/xlink">
    <title>email</title>
    <g id="页面-1" stroke="none" stroke-width="1" fill="none" fill-rule="evenodd" fill-opacity="0.5">
        <g id="1.1首页" transform="translate(-460.000000, -2513.000000)" fill="#FFFFFF" fill-rule="nonzero">
            <g id="footer" transform="translate(0.000000, 2476.000000)">
                <path d="M473,37 C474.760417,37 476.443375,37.3434167 478.048875,38.03025 C479.654375,38.7170833 481.037521,39.6408958 482.198313,40.8016875 C483.359104,41.9624792 484.282917,43.345625 484.96975,44.951125 C485.656583,46.556625 486,48.2395833 486,50 C486,51.7604167 485.656583,53.443375 484.96975,55.048875 C484.282917,56.654375 483.359104,58.0375208 482.198313,59.1983125 C481.037521,60.3591042 479.654375,61.2829167 478.048875,61.96975 C476.443375,62.6565833 474.760417,63 473,63 C471.239583,63 469.556625,62.6565833 467.951125,61.96975 C466.345625,61.2829167 464.962479,60.3591042 463.801687,59.1983125 C462.640896,58.0375208 461.717083,56.654375 461.03025,55.048875 C460.343417,53.443375 460,51.7604167 460,50 C460,48.2395833 460.343417,46.556625 461.03025,44.951125 C461.717083,43.345625 462.640896,41.9624792 463.801687,40.8016875 C464.962479,39.6408958 466.345625,38.7170833 467.951125,38.03025 C469.556625,37.3434167 471.239583,37 473,37 Z M474.7,50.2180014 L474.68,50.2180014 L473.273,51.4560014 C473.111573,51.6082643 472.859427,51.6082643 472.698,51.4560014 L471.29,50.2180014 L466.839,55.2280013 C467.115245,55.4035071 467.435718,55.496805 467.763,55.4970014 L478.263,55.4970014 C478.590282,55.496805 478.910755,55.4035071 479.187,55.2280013 L474.7,50.2180014 Z M466.273,45.8410013 C466.099136,46.1137793 466.00461,46.4295585 466,46.7530014 L466,53.7530014 C466.002592,54.0474897 466.080754,54.3363801 466.227,54.5920014 L470.645,49.6490014 L466.274,45.8490014 L466.273,45.8410013 Z M479.727,45.8410013 L475.352,49.6460014 L479.773,54.5890014 C479.91908,54.3333114 479.99723,54.0444652 480,53.7500014 L480,53.7500014 L480,46.7690014 C479.998761,46.4400504 479.904085,46.1182217 479.727,45.8410013 L479.727,45.8410013 Z M478.242,45.0000007 L467.743,45.0000007 C467.448026,44.9997404 467.157868,45.0747754 466.9,45.2180014 L473,50.5450014 L479.081,45.2180014 C478.824549,45.0748547 478.535698,44.9998017 478.242,45.0000007 Z" id="email"></path>
            </g>
        </g>
    </g>
</svg>