<?xml version="1.0" encoding="UTF-8"?>
<svg width="95px" height="95px" viewBox="0 0 95 95" version="1.1" xmlns="http://www.w3.org/2000/svg" xmlns:xlink="http://www.w3.org/1999/xlink">
    <title>icon_1</title>
    <g id="页面-1" stroke="none" stroke-width="1" fill="none" fill-rule="evenodd">
        <g id="1.1首页" transform="translate(-220.000000, -2199.000000)" fill="#FFAE00">
            <g id="编组-6备份" transform="translate(220.000000, 2199.000000)">
                <g id="icon_1" transform="translate(0.000000, -0.000000)">
                    <circle id="椭圆形" fill-opacity="0.1" cx="47.5" cy="47.5" r="47.5"></circle>
                    <path d="M68.5466142,39.3558 C67.5989537,38.3822317 66.6456692,37.4058522 65.6951967,36.4318153 C63.8204976,34.5160689 61.9589213,32.5975114 60.0865655,30.680828 C58.7789628,29.337135 57.4713602,27.9985956 56.1689129,26.6595877 C56.1056418,26.5944645 56.0348719,26.5260617 55.9720695,26.46047 C55.5858815,26.0617661 54.9873838,25.9062201 54.4488765,26.056144 C53.7767968,26.2398008 53.2987485,26.8699497 53.2987485,27.5656903 L53.2987485,31.7049957 L38.327401,31.7049957 C37.4716008,31.7049957 36.7624959,32.4161972 36.7624959,33.2745116 C36.7624959,34.1225187 37.4716008,34.8337202 38.327401,34.8337202 L54.8720898,34.8337202 C55.7203912,34.8337202 56.4369949,34.1225187 56.4369949,33.2717005 L56.4369949,31.4056164 C56.497454,31.4688655 56.5602564,31.5316462 56.6207154,31.5944268 C58.4855724,33.5134528 60.3523041,35.4306047 62.2213792,37.3454141 C63.2191878,38.3667708 64.211841,39.3871903 65.2068376,40.408547 L63.1113926,42.3617744 C61.152332,44.1753851 59.2040509,45.9997716 57.2454589,47.8133824 C57.1971854,47.8597651 57.1479746,47.9052108 57.098295,47.9497195 L57.098295,45.7580193 C57.098295,44.9048586 56.3868467,44.1913145 55.5333899,44.1913145 L42.3734705,44.1913145 L42.3734705,40.2169255 C42.3734705,39.663144 42.0767993,39.1459066 41.5964077,38.8652677 C40.9922859,38.5054504 40.2044435,38.6155507 39.7006181,39.1088941 C38.7004661,40.1012029 37.69469,41.0883582 36.6968814,42.0750449 L30.9701442,47.7187429 C29.8120487,48.8605072 28.6487979,50.0050825 27.4883591,51.1520004 C27.4775796,51.1627762 27.4672688,51.1726149 27.45977,51.1908869 C27.1630988,51.4691832 27,51.884285 27,52.2932961 C27,52.7393198 27.1785651,53.0729005 27.45977,53.400859 C28.3183822,54.4325229 29.1769944,55.4562221 30.0356066,56.4878859 L35.1793124,62.6352346 C36.4470778,64.1471235 37.7181238,65.664166 38.9835457,67.1812086 C39.0861855,67.3044273 39.1855446,67.4229609 39.285841,67.5410259 C39.6350037,67.9608129 40.3070833,68.0845001 40.8057533,67.945352 C41.477833,67.7616952 41.9558812,67.1315463 41.9558812,66.4390852 L41.9558812,61.7169507 L53.8114787,61.7169507 C54.6677476,61.7169507 55.3763839,61.0057492 55.3763839,60.1497774 C55.3763839,59.2938056 54.6672789,58.5854151 53.8114787,58.5854151 L40.3966002,58.5854151 C39.5408,58.5854151 38.8265397,59.2970851 38.8265397,60.1497774 L38.8265397,62.131584 L33.7770375,56.0943357 C32.7478276,54.8687077 31.7186178,53.632304 30.6865959,52.3987114 C31.3511768,51.7423258 32.0152889,51.0887513 32.6794011,50.4328342 C34.5883135,48.5508206 36.4920705,46.6711496 38.403795,44.7896046 C38.6821878,44.5136509 38.962924,44.2353547 39.2441289,43.9598695 L39.2441289,45.7603619 C39.2441289,46.6107116 39.9555772,47.3247242 40.8118461,47.3247242 L53.9614547,47.3247242 L53.9614547,51.5530469 C53.9614547,52.1016746 54.2585945,52.6240658 54.7413295,52.902362 C55.3609176,53.267333 56.1197021,53.1384922 56.6371191,52.6559246 L59.8644137,49.660726 C61.8230056,47.8363395 63.7740988,46.0175751 65.7275353,44.1959996 L68.5475515,41.5704572 C69.1741697,40.9834114 69.1273022,39.9545586 68.5466142,39.3558 L68.5466142,39.3558 Z" id="路径" fill-rule="nonzero"></path>
                </g>
            </g>
        </g>
    </g>
</svg>