<?xml version="1.0" encoding="UTF-8"?>
<svg width="95px" height="95px" viewBox="0 0 95 95" version="1.1" xmlns="http://www.w3.org/2000/svg" xmlns:xlink="http://www.w3.org/1999/xlink">
    <title>icon_3</title>
    <g id="页面-1" stroke="none" stroke-width="1" fill="none" fill-rule="evenodd">
        <g id="1.1首页" transform="translate(-673.000000, -2199.000000)" fill="#FFAE00">
            <g id="icon_3" transform="translate(673.000000, 2199.000000)">
                <circle id="椭圆形" fill-opacity="0.1" cx="47.5" cy="47.5" r="47.5"></circle>
                <g id="编组" transform="translate(28.500000, 25.000000)" fill-rule="nonzero">
                    <path d="M18.9977858,0 C19.4317679,0 19.8657499,0.0616981686 20.2864468,0.189501518 L20.2864468,0.189501518 L34.8558443,4.58329253 C36.7246242,5.14739007 38,6.85731074 38,8.80080306 L38,8.80080306 L38,27.5570463 C38,32.5149349 35.2101154,37.0585643 30.7772987,39.3193615 L30.7772987,39.3193615 L20.2155926,44.7091372 C19.8347512,44.9030457 19.4184827,45 19.0022142,45 C18.5859457,45 18.1696772,44.9030457 17.7888358,44.7091372 L17.7888358,44.7091372 L7.22270132,39.3149545 C2.78988463,37.0541573 0,32.5105279 0,27.5526393 L0,27.5526393 L0,8.80080306 C0,6.85731074 1.27537583,5.14739007 3.14415569,4.58329253 L3.14415569,4.58329253 L17.7135532,0.189501518 C18.1342501,0.0616981686 18.5638038,0 18.9977858,0 Z M18.2228179,10.2991872 L3.547,14.722 L3.54713903,27.5526393 C3.54713903,29.2184899 3.97919227,30.8497894 4.79649299,32.2996324 L4.97750845,32.6074821 C5.91189838,34.1323083 7.24927165,35.3662717 8.84349143,36.1815689 L8.84349143,36.1815689 L18.9977858,41.3642151 L29.1565086,36.1815689 C30.7507284,35.3662717 32.0881016,34.1323083 33.0224916,32.6074821 C33.9568815,31.087063 34.452861,29.3374792 34.452861,27.5526393 L34.452861,27.5526393 L34.452,14.709 L19.8391796,10.2991872 C19.3122014,10.1405347 18.7497961,10.1405347 18.2228179,10.2991872 Z M30.0200443,16.3147586 C30.7153012,17.0022525 30.7108729,18.1172265 30.0200443,18.8091274 L18.5948025,30.1792185 C18.2449598,30.5229654 17.7932642,30.6948389 17.3415686,30.6948389 C16.889873,30.6948389 16.433749,30.5229654 16.0883347,30.1792185 L10.6414171,24.7585937 C9.95058851,24.0710998 9.95058851,22.9561257 10.6414171,22.2642249 C11.3322457,21.572324 12.4526279,21.576731 13.1478849,22.2642249 L17.3415686,26.4376653 L27.5135765,16.3147586 C28.2044051,15.6272647 29.3247873,15.6272647 30.0200443,16.3147586 Z M18.9977858,3.52560964 C18.9136464,3.52560964 18.8250787,3.53883067 18.7453677,3.56527275 L18.7453677,3.56527275 L4.17597017,7.95906375 C3.79955716,8.06923906 3.54713903,8.40857898 3.54713903,8.80080306 L3.54713903,8.80080306 L3.547,11.038 L17.1954318,6.92341592 C18.395525,6.56204094 19.6664724,6.56204094 20.8665657,6.92341592 L34.452,11.019 L34.452861,8.80080306 C34.452861,8.4517677 34.2484023,8.14199882 33.9331055,8.0000049 L33.8240298,7.95906375 L19.2546323,3.56527275 C19.1704929,3.53883067 19.0863536,3.52560964 18.9977858,3.52560964 Z" id="形状结合"></path>
                </g>
            </g>
        </g>
    </g>
</svg>