<?xml version="1.0" encoding="UTF-8"?>
<svg width="95px" height="95px" viewBox="0 0 95 95" version="1.1" xmlns="http://www.w3.org/2000/svg" xmlns:xlink="http://www.w3.org/1999/xlink">
    <title>icon_2</title>
    <g id="页面-1" stroke="none" stroke-width="1" fill="none" fill-rule="evenodd">
        <g id="1.1首页" transform="translate(-446.000000, -2199.000000)" fill="#FFAE00">
            <g id="icon_2" transform="translate(446.000000, 2199.000000)">
                <circle id="椭圆形" fill-opacity="0.1" cx="47.5" cy="47.5" r="47.5"></circle>
                <path d="M46.0314497,41.0931295 C46.4209527,41.0937899 46.7946588,40.9389035 47.0698594,40.6627478 L54.4135507,33.3189832 C54.7837999,32.9473016 54.9280046,32.4059588 54.7918441,31.8988733 C54.6556837,31.3917878 54.2598441,30.9959981 53.7534344,30.8605942 C53.2470247,30.7251903 52.7069805,30.8707434 52.3367313,31.242425 L44.99304,38.5861896 C44.5741908,39.0066489 44.4492935,39.6384411 44.6765588,40.1871071 C44.9038242,40.7357731 45.4385235,41.0933285 46.0314497,41.0931295 L46.0314497,41.0931295 Z M70.9900361,52.7943681 C70.9861693,52.6230535 70.9521524,52.4537671 70.8895509,52.294299 C70.875921,52.2622795 70.8544892,52.2349687 70.8390733,52.203891 C70.8025755,52.1194131 70.7579999,52.0386738 70.7059704,51.962803 L61.8935408,40.2125914 C61.8369001,40.1567744 61.7757488,40.105746 61.7107123,40.0600279 L66.1706006,35.5339786 C66.7344358,34.9618077 66.7344358,34.0418341 66.1706006,33.4696632 L55.2799418,22.4201133 C54.6949507,21.8599622 53.7736376,21.8599622 53.1886465,22.4201133 L36.2339081,39.6249395 L34.2815438,39.6249395 C33.8193956,39.6246431 33.3840787,39.8423595 33.1065531,40.2125914 L24.2941236,51.962803 C24.2422454,52.0387675 24.1976781,52.1194918 24.1610207,52.203891 C24.1456048,52.2349687 24.124173,52.2622795 24.1104491,52.294299 C24.0478911,52.45378 24.0138758,52.6230585 24.0099639,52.7943681 C24.0092119,52.8113196 24,52.8263876 24,52.8433391 L24,58.717974 C24,59.1079736 24.155014,59.4819223 24.4304911,59.7574728 C24.7059681,60.0330233 25.0794666,60.1875785 25.4687382,60.1871036 L29.875329,60.1871036 L29.875329,67.5308682 C29.8754783,67.9208678 30.030343,68.2948165 30.3058201,68.570367 C30.5812971,68.8459175 30.9547957,69.0004727 31.3440672,69 L63.6563088,69 C64.0455803,69.0004727 64.4190788,68.8459175 64.6945559,68.570367 C64.970033,68.2948165 65.1248976,67.9208678 65.125047,67.5308682 L65.125047,60.1871036 L69.5312617,60.1871036 C69.9205333,60.1875785 70.2940318,60.0330233 70.5695089,59.7574728 C70.844986,59.4819224 71,59.1079736 71,58.717974 L71,52.8433391 C71,52.8263876 70.9906001,52.8122613 70.9900361,52.7943681 Z M54.2343881,25.5438973 L63.0625155,34.5018209 L52.2277862,45.4995745 L43.9918541,45.4995745 L39.2815517,40.7173693 L54.2343881,25.5438973 Z M35.0159599,42.562257 L36.9737762,42.562257 L39.868953,45.4995745 L35.750282,45.4995745 C35.2177093,45.4860617 34.719717,45.7629935 34.4494608,46.2229565 C34.1792047,46.6829195 34.1792047,47.253547 34.4494608,47.71351 C34.719717,48.173473 35.2177093,48.4504048 35.750282,48.436892 L59.250094,48.436892 C59.7826666,48.4504048 60.280659,48.173473 60.5509151,47.71351 C60.8211712,47.253547 60.8211712,46.6829195 60.5509151,46.2229565 C60.280659,45.7629935 59.7826666,45.4860617 59.250094,45.4995745 L56.3502172,45.4995745 L59.245864,42.5613153 C59.24718,42.5613153 59.24859,42.562257 59.250094,42.562257 L59.9844161,42.562257 L66.5937853,51.3751512 L28.4065907,51.3751512 L35.0159599,42.562257 Z M62.1875705,66.0617386 L32.8128055,66.0617386 L32.8128055,60.1871036 L62.1875705,60.1871036 L62.1875705,66.0617386 Z M68.0625235,57.2497862 L26.9378525,57.2497862 L26.9378525,54.3124687 L68.0625235,54.3124687 L68.0625235,57.2497862 Z" id="形状" fill-rule="nonzero"></path>
            </g>
        </g>
    </g>
</svg>