<?xml version="1.0" encoding="UTF-8"?>
<svg width="95px" height="95px" viewBox="0 0 95 95" version="1.1" xmlns="http://www.w3.org/2000/svg" xmlns:xlink="http://www.w3.org/1999/xlink">
    <title>icon_5</title>
    <g id="页面-1" stroke="none" stroke-width="1" fill="none" fill-rule="evenodd">
        <g id="1.1首页" transform="translate(-1125.000000, -2199.000000)" fill="#FFAE00">
            <g id="编组-6备份-4" transform="translate(1125.000000, 2199.000000)">
                <g id="icon_5" transform="translate(0.000000, -0.000000)">
                    <circle id="椭圆形" fill-opacity="0.1" cx="47.5" cy="47.5" r="47.5"></circle>
                    <path d="M71.4328654,63.1331976 C70.6203606,62.5411068 69.6058386,62.2994206 68.6147039,62.4618918 C67.9203449,62.5710144 67.2695348,62.8704952 66.7340478,63.3267891 L62.8263638,60.5077901 L62.8263638,44.0464527 C62.8336218,43.7263599 62.6521692,43.431729 62.3634579,43.2947196 L48.6843461,36.9773328 L48.6843461,32.5138168 C50.5770991,32.1419918 51.8875905,30.4024977 51.7267025,28.4758786 C51.5658144,26.5492594 49.9847569,25.052664 48.0565199,25.0013359 C46.1286862,24.9504121 44.470612,26.3609221 44.2081105,28.2762247 C43.9456089,30.1915274 45.1621482,31.9981116 47.0327236,32.4697635 L47.0327236,37.0040072 L33.3822411,43.2947196 C33.0870781,43.4284958 32.8955447,43.72151 32.890706,44.0460485 L32.890706,60.6625825 L29.2261686,63.3271933 C27.9011608,62.1858523 25.9676819,62.1054249 24.5531576,63.1331976 C22.8704865,64.3646657 22.4970972,66.7281792 23.7184752,68.4203868 C24.9398533,70.1125945 27.2963187,70.4969484 28.9898769,69.2804341 C30.4419015,68.2251788 30.9576303,66.2941139 30.225368,64.6532342 L33.9209539,61.974882 L47.5420008,68.256703 C47.7609537,68.3577424 48.0133745,68.3577424 48.2323274,68.256703 L61.9844234,61.9142584 L65.7630744,64.6528301 C65.0308121,66.2941139 65.5461376,68.2251788 66.9981621,69.2804341 C68.6921237,70.5078607 71.0574599,70.1267401 72.2820638,68.4288742 C73.5066678,66.7314124 73.1264236,64.36022 71.4328654,63.1331976 Z M47.8867609,49.7022336 L35.7088675,44.0488777 L47.8871641,38.4323 L60.0658638,44.0488777 L47.8867609,49.7022336 Z M45.8250553,28.7919297 C45.8250553,27.6113855 46.7798995,26.6543404 47.957729,26.6543404 C49.1351552,26.6543404 50.0899995,27.6113855 50.0899995,28.7919297 C50.0899995,29.972474 49.1351552,30.9295191 47.957729,30.9295191 C46.7803029,30.9283066 45.826265,29.9720698 45.8250553,28.7919297 Z M28.0225326,67.9390351 C27.2749475,68.4806063 26.2644578,68.4789896 25.5184857,67.9349936 C24.7725137,67.3905933 24.460415,66.4274859 24.744691,65.5476348 C25.02937,64.668188 25.845907,64.0716514 26.768493,64.0696307 C26.8834131,64.0696307 26.9979298,64.0789263 27.1116401,64.0971134 C27.963258,64.234527 28.6483426,64.8722876 28.8479406,65.7133395 C29.0471353,66.5543914 28.7213269,67.4330299 28.0225326,67.9394393 L28.0225326,67.9390351 Z M34.5423285,45.3417776 L47.0327236,51.1438636 L47.0327236,66.2128782 L34.5423285,60.4491873 L34.5423285,45.3417776 Z M48.6843461,66.2128782 L48.6843461,51.1438636 L61.1747413,45.3417776 L61.1747413,60.4491873 L48.6843461,66.2128782 Z M70.9437497,67.4593002 C70.2526166,68.4147286 68.920754,68.6293363 67.9659097,67.9390351 C67.0114688,67.2475216 66.7973546,65.9109725 67.487278,64.9543315 C68.1772014,63.9976906 69.5106768,63.783083 70.4651178,64.4745966 C71.4195589,65.1665143 71.6336729,66.5026592 70.9437497,67.4593002 L70.9437497,67.4593002 Z" id="3d-cube" stroke="#FFAE00" fill-rule="nonzero"></path>
                </g>
            </g>
        </g>
    </g>
</svg>