<?xml version="1.0" encoding="UTF-8"?>
<svg width="95px" height="95px" viewBox="0 0 95 95" version="1.1" xmlns="http://www.w3.org/2000/svg" xmlns:xlink="http://www.w3.org/1999/xlink">
    <title>icon_4</title>
    <g id="页面-1" stroke="none" stroke-width="1" fill="none" fill-rule="evenodd">
        <g id="1.1首页" transform="translate(-899.000000, -2199.000000)" fill="#FFAE00">
            <g id="icon_4" transform="translate(899.000000, 2199.000000)">
                <circle id="椭圆形" fill-opacity="0.1" cx="47.5" cy="47.5" r="47.5"></circle>
                <path d="M38.1319611,69 C37.1510969,69 36.2630171,68.7744596 35.492268,68.3292818 C32.6068678,66.6636771 31.6915418,62.1415555 32.9701509,55.9039004 C26.9484889,53.8944511 23.5,50.8374812 23.5,47.4988932 C23.5,44.1578457 26.9477525,41.1021055 32.9703963,39.0968375 C31.7008693,32.8645934 32.6188954,28.3427177 35.4998773,26.6717021 C36.2684173,26.2260323 37.1555152,26 38.1363794,26 C40.7795091,26 44.0988852,27.6628992 47.5002455,30.6876491 C50.9025876,27.6643749 54.22,26.0022136 56.8594477,26.0022136 C57.8400665,26.0022136 58.7283917,26.227754 59.4996318,26.6731778 C62.381841,28.3370608 63.299867,32.8564769 62.0296037,39.0906886 C68.052002,41.1035812 71.5,44.1630107 71.5,47.5028285 C71.5,50.8453517 68.0517566,53.9006 62.0298491,55.9034085 C63.3072309,62.1403257 62.3889593,66.6622014 59.4996318,68.3285439 C58.729619,68.7727379 57.8425211,68.9980324 56.8628842,68.9980324 C54.2190182,68.9980324 50.900133,67.3341494 47.5,64.3081697 C44.0969215,67.3353791 40.7763181,69 38.1319611,69 Z M49.6225058,62.241659 C52.4593045,64.658901 55.1944822,66.0957679 56.9728509,66.0957679 C57.4060905,66.0957679 57.7740373,66.0096837 58.0666275,65.840467 L58.1527845,65.7907841 C59.6243263,64.8200013 60.0217285,61.2979311 59.176359,56.7167804 C57.2715118,57.1791098 55.3389186,57.5179992 53.3905855,57.7313432 C52.2342279,59.3156388 50.9755046,60.8223052 49.6225058,62.241659 L49.6225058,62.241659 Z M36.9331271,65.8399751 C37.2244899,66.008454 37.590473,66.0938002 38.0210125,66.0938002 C39.7947175,66.0938002 42.5240041,64.6544738 45.3546663,62.2332965 C44.0114558,60.8116019 42.7604012,59.3052503 41.609169,57.7234727 C39.6590079,57.5130951 37.7241496,57.1788259 35.8162772,56.7226833 C34.9613347,61.3894262 35.3935924,64.9542925 36.9326362,65.840221 L36.9331271,65.8399751 L36.9331271,65.8399751 Z M45.4594784,58.0065664 C46.1091637,58.7755857 46.7872733,59.5200348 47.4923907,60.2383586 C48.2010944,59.5248447 48.8822587,58.7843883 49.5343851,58.0186182 C48.8279468,58.0451813 48.1578369,58.0584628 47.5,58.0584628 C46.8895372,58.0584628 46.2444643,58.0422298 45.4594784,58.0065664 L45.4594784,58.0065664 Z M43.130294,55.0297777 C44.578517,55.1803019 46.048586,55.2604831 47.5012273,55.2676158 C48.9511685,55.2676158 50.4155919,55.1955511 51.8547328,55.0536353 C52.6975407,53.8694126 53.4827866,52.6451004 54.2077269,51.3849762 C54.9359481,50.1138563 55.5989032,48.806298 56.1940015,47.467411 C55.5952419,46.1538378 54.9350363,44.8692678 54.2155817,43.6179753 L54.1826898,43.5606679 C53.4690915,42.3275369 52.6974739,41.1290448 51.8704423,39.9692385 C50.4178692,39.8187992 48.9588195,39.7396711 47.4985272,39.7321383 C46.0483406,39.7321383 44.5844081,39.803957 43.1450217,39.945135 C42.2996539,41.1305906 41.5117111,42.3561243 40.7839274,43.6174834 C40.0616797,44.8863019 39.4015068,46.1896004 38.805753,47.5227508 C39.437571,48.9023103 40.0877985,50.166517 40.7917822,51.3847302 C41.5148688,52.635171 42.2952041,53.8514826 43.130294,55.0297777 L43.130294,55.0297777 Z M56.1625825,53.5599529 C55.9679038,53.8838177 55.7699699,54.2057067 55.568811,54.5255707 C56.5582229,54.3416136 57.5404967,54.1210051 58.5136129,53.8641987 C58.2467881,52.8904795 57.9435935,51.9271355 57.6046689,50.9761996 C57.2906949,51.5863227 56.9625047,52.1889948 56.6203682,52.7837201 L56.1625825,53.5764318 L56.1625825,53.5599529 L56.1625825,53.5599529 Z M36.4861417,53.8715774 C37.335193,54.0946582 38.3008387,54.3039656 39.4176886,54.5071241 C39.0595629,53.9384243 38.7132243,53.3623572 38.3788954,52.7792929 C38.0440906,52.1938751 37.7175128,51.6037717 37.3992585,51.0091575 C37.0084838,52.1142316 36.7131936,53.0395129 36.4861417,53.8715774 L36.4861417,53.8715774 Z M33.6940169,41.9949208 C29.2337356,43.5786225 26.3664996,45.7285119 26.3664996,47.5030744 C26.3664996,49.2810804 29.2305446,51.4353969 33.6861621,53.0235258 C34.2415142,51.1410289 34.917697,49.2964609 35.7104833,47.5013528 C34.9206666,45.7113103 34.247108,43.8720012 33.6940169,41.9949208 L33.6940169,41.9949208 Z M59.2892713,47.4910227 C60.0785064,49.2857764 60.7545276,51.1284023 61.313347,53.0080307 C65.7692099,51.4203936 68.6332549,49.2717341 68.6332549,47.5023366 C68.6332549,45.7484342 65.6994988,43.5427132 61.3059831,41.9779499 C60.750292,43.8563651 60.076713,45.697724 59.2892713,47.4910227 Z M36.4866326,41.1330958 C36.7538343,42.1038393 37.056943,43.0642988 37.3953311,44.0124865 C37.6871849,43.4487585 38.0143851,42.833872 38.3720225,42.2194773 C38.7137947,41.6316295 39.0649315,41.0492984 39.4252979,40.4727076 C38.4377413,40.6554254 37.4574776,40.875714 36.4866326,41.1330958 L36.4866326,41.1330958 Z M55.5891844,40.4963193 C55.9686679,41.1025974 56.3029864,41.65206 56.6287139,42.2241505 C56.9609064,42.8054253 57.2847851,43.3914312 57.6002506,43.9819881 C57.9915162,42.8786357 58.2863155,41.9565518 58.513122,41.1289145 C57.6702071,40.9075554 56.7251803,40.7029211 55.5891844,40.4963193 L55.5891844,40.4963193 Z M36.9333725,29.1654359 C35.3989926,30.05407 34.9696804,33.620166 35.8241319,38.286663 C37.7263216,37.8253799 39.6560975,37.4869065 41.6015597,37.2733299 C42.760175,35.6906677 44.0189515,34.1841338 45.3701304,32.7630141 C42.5416773,30.3445424 39.8101815,28.9066917 38.0313219,28.9066917 C37.6250831,28.9066917 37.2753004,28.9821997 36.9908105,29.1307563 L36.9333725,29.1654359 L36.9333725,29.1654359 Z M53.3989312,37.2748057 C55.3437188,37.485597 57.2732278,37.8196163 59.1758681,38.2748571 C60.018292,33.6789491 59.6127896,30.1512221 58.1311838,29.2023291 L58.0666275,29.1654359 C57.7750192,28.9967111 57.4082997,28.9113648 56.9772692,28.9113648 C55.2040552,28.9113648 52.475505,30.3479857 49.6460701,32.7647358 C50.9934451,34.1848325 52.2470538,35.6913798 53.3989312,37.2748057 L53.3989312,37.2748057 Z M47.5294554,36.9373559 C48.2165022,36.9373559 48.9109128,36.9609676 49.5451854,36.9894983 C48.8916822,36.222372 48.2114984,35.4784749 47.5058911,34.7591818 C46.7977449,35.4724388 46.1170739,36.212565 45.4653695,36.9779384 C46.1565891,36.9516213 46.8384812,36.9380938 47.4995091,36.9373559 L47.5294554,36.9373559 L47.5294554,36.9373559 Z M47.5,49.3356823 C46.4913986,49.3356823 45.6708208,48.513456 45.6708208,47.5030744 C45.6708208,46.4924469 46.4913986,45.6702206 47.5,45.6702206 C48.5083559,45.6702206 49.3289338,46.4924469 49.3289338,47.5030744 C49.3289338,48.513456 48.5083559,49.3356823 47.5,49.3356823 Z" id="形状" fill-rule="nonzero"></path>
            </g>
        </g>
    </g>
</svg>