<?xml version="1.0" encoding="UTF-8"?>
<svg width="66px" height="54px" viewBox="0 0 66 54" version="1.1" xmlns="http://www.w3.org/2000/svg" xmlns:xlink="http://www.w3.org/1999/xlink">
    <title>image</title>
    <g id="页面-1" stroke="none" stroke-width="1" fill="none" fill-rule="evenodd" fill-opacity="0.46">
        <g id="6.1NFT铸造1" transform="translate(-423.000000, -320.000000)" fill="#FFFFFF" fill-rule="nonzero">
            <g id="编组-7" transform="translate(330.000000, 249.000000)">
                <path d="M155.158514,71 C157.283591,71 158.959133,72.6925373 159,74.7477612 L159,74.7477612 L159,121.252239 C159,123.307463 157.283591,125 155.199381,125 L155.199381,125 L96.8006192,125 C94.7164087,125 93,123.307463 93,121.252239 L93,121.252239 L93,74.7477612 C93,72.6925373 94.7164087,71 96.8006192,71 L96.8006192,71 Z M138.403096,91.9149254 C137.790093,91.9149254 137.258824,92.358209 137.258824,92.358209 L137.258824,92.358209 L122.424149,107.147761 C121.933746,107.631343 121.157276,107.631343 120.666873,107.147761 L120.666873,107.147761 L113.801238,100.297015 C113.801238,100.297015 113.229102,99.8537313 112.779567,99.8537313 C112.370898,99.8537313 111.839628,100.256716 111.839628,100.256716 L111.839628,100.256716 L100.356037,111.580597 C99.5795666,112.346269 98.803096,113.474627 98.803096,113.474627 L98.803096,113.474627 L98.8037146,117.245017 C98.8129934,117.466383 98.9614551,119.237313 101.336842,119.237313 L101.336842,119.237313 L149.84582,119.237313 C153.156037,119.237313 153.156037,115.328358 153.156037,116.255224 L153.156037,106.1 C153.156037,106.1 152.379567,105.01194 151.603096,104.286567 L151.603096,104.286567 L139.547368,92.3985075 C139.547368,92.3985075 139.016099,91.9149254 138.403096,91.9149254 Z M106.813003,80.7925373 C104.647059,80.7925373 102.848916,82.5253731 102.848916,84.7014925 C102.848916,86.8776119 104.647059,88.6104478 106.813003,88.6104478 C109.019814,88.6104478 110.77709,86.8373134 110.77709,84.7014925 C110.77709,82.5253731 108.978947,80.7925373 106.813003,80.7925373 Z" id="image"></path>
            </g>
        </g>
    </g>
</svg>