<?xml version="1.0" encoding="UTF-8"?>
<svg width="26px" height="26px" viewBox="0 0 26 26" version="1.1" xmlns="http://www.w3.org/2000/svg" xmlns:xlink="http://www.w3.org/1999/xlink">
    <title>instagram </title>
    <g id="页面-1" stroke="none" stroke-width="1" fill="none" fill-rule="evenodd" fill-opacity="0.5">
        <g id="1.1首页" transform="translate(-420.000000, -2513.000000)" fill="#FFFFFF" fill-rule="nonzero">
            <g id="footer" transform="translate(0.000000, 2476.000000)">
                <path d="M433,37 C434.760417,37 436.443375,37.3434167 438.048875,38.03025 C439.654375,38.7170833 441.037521,39.6408958 442.198313,40.8016875 C443.359104,41.9624792 444.282917,43.345625 444.96975,44.951125 C445.656583,46.556625 446,48.2395833 446,50 C446,51.7604167 445.656583,53.443375 444.96975,55.048875 C444.282917,56.654375 443.359104,58.0375208 442.198313,59.1983125 C441.037521,60.3591042 439.654375,61.2829167 438.048875,61.96975 C436.443375,62.6565833 434.760417,63 433,63 C431.239583,63 429.556625,62.6565833 427.951125,61.96975 C426.345625,61.2829167 424.962479,60.3591042 423.801687,59.1983125 C422.640896,58.0375208 421.717083,56.654375 421.03025,55.048875 C420.343417,53.443375 420,51.7604167 420,50 C420,48.2395833 420.343417,46.556625 421.03025,44.951125 C421.717083,43.345625 422.640896,41.9624792 423.801687,40.8016875 C424.962479,39.6408958 426.345625,38.7170833 427.951125,38.03025 C429.556625,37.3434167 431.239583,37 433,37 Z M433.722466,43.000001 L432.99987,43.0005209 C432.033235,43.0005209 431.075355,42.9917651 430.110471,43.0460508 C428.989735,43.1003365 427.995081,43.3560044 427.175543,44.1755429 C426.354253,44.9968325 426.100336,45.9897349 426.046051,47.1104712 C426.005337,47.8354476 426.000083,48.5554988 426.000001,49.2772738 L426.000521,49.9998697 C426.000521,50.9647536 425.991765,51.9243841 426.046051,52.8892681 C426.100336,54.0100045 426.356004,55.004658 427.175543,55.8241965 C427.996833,56.6454861 428.989735,56.8994029 430.110471,56.9536886 C430.835448,56.9944028 431.555499,56.9996563 432.277274,56.9997384 L432.99987,56.9992185 C433.966505,56.9992185 434.924384,57.0079742 435.889268,56.9536886 C437.010004,56.8994029 438.004658,56.6437349 438.824196,55.8241965 C439.645486,55.0029068 439.899403,54.0100045 439.953689,52.8892681 C439.995716,52.1656051 440.000313,51.4458823 439.999985,50.7234506 L439.999218,49.9998697 C439.999218,49.0332346 440.007974,48.0753552 439.953689,47.1104712 C439.899403,45.9897349 439.643735,44.9950814 438.824196,44.1755429 C438.002907,43.3542533 437.010004,43.1003364 435.889268,43.0460508 C435.164292,43.0053365 434.444241,43.0000831 433.722466,43.000001 Z M432.998119,46.4082599 C434.985674,46.4082599 436.589728,48.0123138 436.589728,49.9998697 C436.589728,51.9874256 434.985674,53.5914795 432.998119,53.5914795 C431.010563,53.5914795 429.406509,51.9874256 429.406509,49.9998697 C429.406509,48.0123138 431.010563,46.4082599 432.998119,46.4082599 Z M432.998119,47.665586 C431.712774,47.665586 430.663835,48.7145252 430.663835,49.9998697 C430.663835,51.2852142 431.712774,52.3341534 432.998119,52.3341534 C434.283463,52.3341534 435.332402,51.2852142 435.332402,49.9998697 C435.332402,48.7145252 434.283463,47.665586 432.998119,47.665586 Z M436.736825,45.4223621 C437.20088,45.4223621 437.575627,45.7971083 437.575627,46.2611632 C437.575905,46.4837126 437.487622,46.6972273 437.330255,46.8545936 C437.172889,47.0119599 436.959374,47.1002436 436.736825,47.099965 C436.27277,47.099965 435.898024,46.7252181 435.898024,46.2611632 C435.898024,45.7971083 436.27277,45.4223621 436.736825,45.4223621 Z" id="instagram-"></path>
            </g>
        </g>
    </g>
</svg>