<?xml version="1.0" encoding="UTF-8"?>
<svg width="95px" height="95px" viewBox="0 0 95 95" version="1.1" xmlns="http://www.w3.org/2000/svg" xmlns:xlink="http://www.w3.org/1999/xlink">
    <title>邀请分红</title>
    <g id="页面-1" stroke="none" stroke-width="1" fill="none" fill-rule="evenodd">
        <g id="4.1My-NFT-无" transform="translate(-1055.000000, -639.000000)" fill="#FFAE00">
            <g id="编组-6备份-4" transform="translate(985.000000, 609.000000)">
                <g id="邀请分红" transform="translate(70.000000, 30.000000)">
                    <circle id="椭圆形" fill-opacity="0.1" cx="47.5" cy="47.5" r="47.5"></circle>
                    <path d="M48,45.6136731 C51.5111372,45.6136731 58.3106682,47.5264617 58.3106682,51.2350488 L58.3106682,51.2350488 L58.3106682,61.5009327 L53.6263318,61.5006731 L53.6271981,69 L42.3786635,69 L42.3783318,61.5006731 L37.6893318,61.5009327 L37.6893318,51.2291993 C37.6893318,47.5264617 44.4888628,45.6136731 48,45.6136731 Z" id="形状结合" fill-opacity="0.5" fill-rule="nonzero"></path>
                    <path d="M54.5650645,52.1592708 L54.5650645,69 L52.6893318,69 L52.6893318,52.1592708 L54.5650645,52.1592708 Z M43.3106682,52.1592708 L43.3106682,69 L41.4349355,69 L41.4349355,52.1592708 L43.3106682,52.1592708 Z M48,44.6836016 C52.038687,44.6836016 59.2485346,46.859618 59.2485346,51.2350488 L59.2485346,61.5009327 L57.3786635,61.5009327 L57.3786635,51.2350488 C57.3786635,48.3804897 51.2239156,46.5612931 47.9882767,46.5612931 C44.7526377,46.5612931 38.5920281,48.3804897 38.5920281,51.2350488 L38.5920281,61.5009327 L36.7514654,61.5009327 L36.7514654,51.2350488 C36.7514654,46.8771665 43.961313,44.6836016 48,44.6836016 Z M60.1981243,40.9340679 C62.7303634,40.9340679 67.6951934,42.3496485 67.6951934,45.6078236 L67.6893318,55.902955 L65.8135991,55.902955 L65.8135991,45.6136731 C65.8135991,44.0109083 62.4021102,42.80591 60.1864009,42.80591 C58.6565064,42.80591 56.3118406,43.4318072 55.1864009,44.4437718 L53.9378664,43.0574388 C55.6611958,41.50147 58.6213365,40.9340679 60.1981243,40.9340679 Z M35.8135991,40.9399174 C37.3845252,40.9399174 40.3388042,41.5073195 42.073857,43.0632883 L40.8135991,44.4496213 C39.6940211,43.4376567 37.3434936,42.8117595 35.8135991,42.8117595 C33.5978898,42.8117595 30.1864009,44.0167578 30.1864009,45.6195226 L30.1864009,55.902955 L28.3165299,55.902955 L28.3165299,45.6136731 C28.3165299,42.3496485 33.2813599,40.9399174 35.8135991,40.9399174 Z M70.3856975,38.1087563 C72.9589683,38.1087563 77.9882767,39.5301864 77.9882767,42.80591 L78,49.3515077 L76.1242673,49.3515077 L76.1242673,42.80591 C76.1242673,41.2440918 72.6541618,39.9805984 70.3915592,39.9805984 C69.2719812,40.0332439 68.1817116,40.3549668 67.2145369,40.9165194 L66.2825322,39.2903566 C67.5310668,38.5650178 68.943728,38.1555523 70.3856975,38.1087563 Z M25.6025791,38.1087563 C27.0504103,38.1614018 28.4572098,38.5650178 29.7057444,39.2903566 L28.7737397,40.9165194 C27.8065651,40.3549668 26.7162954,40.0332439 25.5967175,39.9805984 C23.3341149,39.9805984 19.8640094,41.2499413 19.8640094,42.80591 L19.8757327,49.3515077 L18,49.3515077 L18,42.80591 C18,39.5243368 23.0410317,38.1087563 25.6025791,38.1087563 Z M48.1172333,25.0000061 C53.2989449,25.0058618 57.4900352,29.1999579 57.4900352,34.3709216 C57.4783118,39.5535844 53.2579132,43.7476805 48.0586166,43.7418371 C42.876905,43.718433 38.6975381,39.5126378 38.7150678,34.3416741 C38.7327081,29.1707104 42.9413834,24.9941628 48.1172333,25.0000061 Z M48.0586166,26.9010713 C43.926143,26.9361989 40.6025791,30.2996651 40.6200947,34.4235672 C40.6436108,38.5474693 44.0023447,41.8758385 48.1348183,41.8641702 C52.2672919,41.8524404 55.6143025,38.5123722 55.6143025,34.3884702 C55.5967175,30.2411701 52.2145369,26.8894029 48.0586166,26.9010713 Z M49.0621336,28.7729439 L49.062,30.638 L50.8135991,30.6389365 L50.8135991,32.4932301 L47.6541618,32.4932301 C47.4841735,32.4932301 47.3317702,32.5809727 47.2497069,32.7272103 C47.1676436,32.873448 47.1676436,33.0489332 47.2497069,33.1951708 C47.3317702,33.3414085 47.4900352,33.4291511 47.6541618,33.4291511 L48.5920281,33.4291511 C49.4302462,33.4291511 50.2039859,33.8737136 50.6201641,34.5990524 C51.0363423,35.3243912 51.0363423,36.2135162 50.6201641,36.938855 C50.2833725,37.5258344 49.7124199,37.928938 49.0626295,38.0613654 L49.0621336,40.0039964 L47.0621336,40.0039964 L47.062,38.126 L45.1922626,38.1263048 L45.1922626,36.2544627 L48.5920281,36.2544627 C48.7620164,36.2544627 48.9144197,36.1667201 48.996483,36.0204825 C49.0785463,35.8742448 49.0785463,35.6987596 48.996483,35.552522 C48.9144197,35.4062843 48.7561547,35.3185417 48.5920281,35.3185417 L47.6541618,35.3185417 C46.8159437,35.3185417 46.042204,34.8739792 45.6260258,34.1486404 C45.2098476,33.4233016 45.2098476,32.5341766 45.6260258,31.8088378 C45.9415895,31.2588556 46.4627262,30.8703003 47.0616704,30.7145723 L47.0621336,28.7729439 L49.0621336,28.7729439 Z M64.5943728,26.5091849 C67.2086753,28.4102745 68.2930832,31.7795903 67.2848769,34.8447317 C66.2766706,37.9098731 63.4044549,39.9805984 60.1688159,39.9689487 L60.1981243,39.9455013 C59.4419695,39.9455013 58.6858148,39.8343607 57.96483,39.617929 L58.5158265,37.8338295 C61.0187573,38.6118138 63.7209848,37.5413542 65.0164127,35.2717456 C66.3118406,32.9962876 65.8429074,30.1300294 63.890973,28.3868765 C61.9390387,26.6437236 59.0375147,26.4857869 56.9097304,28.0183576 L55.8194607,26.4916364 C58.4396249,24.5963963 61.985932,24.6080953 64.5943728,26.5091849 Z M40.1453693,26.4682384 L39.0609613,27.9949596 C36.933177,26.4682384 34.031653,26.6203256 32.0797186,28.3634785 C30.1277843,30.1124809 29.6647128,32.9787391 30.954279,35.2483476 C32.2497069,37.5238056 34.957796,38.5884158 37.4548652,37.8104315 L38.0058617,39.5945309 C37.3024619,39.8226617 36.5521688,39.9396518 35.8018757,39.9455013 C32.5896835,39.9338023 29.7467761,37.863077 28.7502931,34.8154841 C27.7538101,31.7678913 28.8323564,28.4219736 31.4232122,26.5267335 C34.014068,24.6314934 37.5310668,24.6022458 40.1453693,26.4682384 Z M71.0890973,25.0292598 C74.3892145,25.1170024 77.021102,27.8136249 77.021102,31.106897 C77.021102,34.4001692 74.3892145,37.0967917 71.0890973,37.1845343 L71.0656506,37.1962333 C70.0046893,37.1962333 68.961313,36.9096075 68.052755,36.3714529 L69.0082063,34.7628386 C69.6295428,35.1313575 70.3446659,35.3243912 71.0715123,35.3243912 C73.3458382,35.2483476 75.1570926,33.3882046 75.1570926,31.1127465 C75.1570926,28.8372885 73.3516999,26.9771455 71.0715123,26.9011019 C70.0515826,26.9011019 69.0726846,27.2813198 68.3282532,27.9715616 L67.0621336,26.591078 C68.1582649,25.5849629 69.5943728,25.0292598 71.0890973,25.0292598 Z M24.922626,25.0409588 C26.4114889,25.0409588 27.8475967,25.5966619 28.9495897,26.602777 L27.6834701,27.9774111 C26.933177,27.2871693 25.9484174,26.9011019 24.922626,26.9069514 C22.6483001,26.982995 20.8370457,28.843138 20.8370457,31.118596 C20.8370457,33.3940541 22.6424385,35.2541971 24.922626,35.3302407 C25.6494725,35.3302407 26.3587339,35.137207 26.9800703,34.7686881 L27.9355217,36.3773024 C27.0269637,36.9096075 25.9835873,37.1962333 24.922626,37.1962333 C21.6225088,37.1084907 18.9906213,34.4118682 18.9906213,31.118596 C18.9906213,27.8253239 21.6225088,25.1287014 24.922626,25.0409588 Z" id="形状结合" fill-rule="nonzero"></path>
                </g>
            </g>
        </g>
    </g>
</svg>