<?xml version="1.0" encoding="UTF-8"?>
<svg width="148px" height="30px" viewBox="0 0 148 30" version="1.1" xmlns="http://www.w3.org/2000/svg" xmlns:xlink="http://www.w3.org/1999/xlink">
    <title>logo_nav</title>
    <g id="页面-1" stroke="none" stroke-width="1" fill="none" fill-rule="evenodd">
        <g id="1.1首页" transform="translate(-30.000000, -24.000000)" fill="#FFFFFF">
            <g id="导航" transform="translate(0.000000, 20.000000)">
                <g id="编组-18" transform="translate(30.000000, 0.000000)">
                    <g id="logo_nav" transform="translate(0.000000, 4.000000)">
                        <path d="M26.8897644,13.4692889 C26.1370476,7.59860783 21.1128254,3.06122449 15.0269374,3.06122449 C8.4214928,3.06122449 3.06672192,8.40639635 3.06672192,15 C3.06672192,21.5936036 8.4214928,26.9387755 15.0269374,26.9387755 C20.460884,26.9387755 25.0484403,23.3214442 26.5047571,18.367535 L29.6737183,18.3674387 C28.142645,25.030262 22.1662057,30 15.0269374,30 C6.72778905,30 0,23.2842712 0,15 C0,6.71572875 6.72778905,0 15.0269374,0 C23.3260858,0 30.0538748,6.71572875 30.0538748,15 C30.0538748,15.5168063 30.0276919,16.0275081 29.9765778,16.5308559 L25.0316558,16.5309534 C24.2925826,21.3836591 20.0947771,25.1020408 15.0269374,25.1020408 C9.43771505,25.1020408 4.90675508,20.5792031 4.90675508,15 C4.90675508,9.42079692 9.43771505,4.89795918 15.0269374,4.89795918 C19.4333121,4.89795918 23.181948,7.70902538 24.5712468,11.6326097 L21.2224919,11.6318453 C20.0260987,9.44366209 17.7001887,7.95918367 15.0269374,7.95918367 C11.1314188,7.95918367 7.973477,11.1114645 7.973477,15 C7.973477,18.8885355 11.1314188,22.0408163 15.0269374,22.0408163 C18.922456,22.0408163 22.0803978,18.8885355 22.0803978,15 C22.0803978,14.4742541 22.0226702,13.9619671 21.913197,13.4691102 L26.8897644,13.4692889 Z"></path>
                        <text id="CyberDAO" font-family="TeluguMN-Bold, Telugu MN" font-size="20.2040816" font-weight="bold">
                            <tspan x="36.8006631" y="21.1836735">CyberDAO</tspan>
                        </text>
                    </g>
                </g>
            </g>
        </g>
    </g>
</svg>