<?xml version="1.0" encoding="UTF-8"?>
<svg width="26px" height="26px" viewBox="0 0 26 26" version="1.1" xmlns="http://www.w3.org/2000/svg" xmlns:xlink="http://www.w3.org/1999/xlink">
    <title>Medium</title>
    <g id="页面-1" stroke="none" stroke-width="1" fill="none" fill-rule="evenodd" fill-opacity="0.5">
        <g id="1.1首页" transform="translate(-300.000000, -2513.000000)" fill="#FFFFFF" fill-rule="nonzero">
            <g id="footer" transform="translate(0.000000, 2476.000000)">
                <path d="M313,37 C305.820982,37 300,42.8209821 300,50 C300,57.1790179 305.820982,63 313,63 C320.179018,63 326,57.1790179 326,50 C326,42.8209821 320.179018,37 313,37 Z M319.244643,45.4964286 C319.140179,45.5747768 319.090848,45.7024554 319.111161,45.8272321 L319.111161,54.1756696 C319.090848,54.3033482 319.140179,54.4310268 319.244643,54.5064732 L320.405357,55.6410714 L320.405357,55.8935268 L314.578571,55.8935268 L314.578571,55.6526786 L315.777009,54.4890625 C315.895982,54.3700893 315.895982,54.3352679 315.895982,54.1582589 L315.895982,47.4029018 L312.558929,55.8645089 L312.109152,55.8645089 L308.226562,47.4029018 L308.226562,53.0758929 C308.191741,53.3138393 308.275893,53.5546875 308.444196,53.7258929 L310.005357,55.6149554 L310.005357,55.8674107 L305.571429,55.8674107 L305.571429,55.6149554 L307.132589,53.7258929 C307.299382,53.5536014 307.374727,53.3124986 307.335714,53.0758929 L307.335714,46.5178571 C307.356027,46.3350446 307.286384,46.1580357 307.147098,46.0332589 L305.760045,44.3618304 L305.760045,44.109375 L310.069196,44.109375 L313.394643,51.4073661 L316.322545,44.1151786 L320.428571,44.1151786 L320.428571,44.3618304 L319.244643,45.4964286 Z" id="Medium"></path>
            </g>
        </g>
    </g>
</svg>