<?xml version="1.0" encoding="UTF-8"?>
<svg width="14px" height="14px" viewBox="0 0 14 14" version="1.1" xmlns="http://www.w3.org/2000/svg" xmlns:xlink="http://www.w3.org/1999/xlink">
    <title>paimai</title>
    <g id="页面-1" stroke="none" stroke-width="1" fill="none" fill-rule="evenodd">
        <g id="4.2My-NFT-常规" transform="translate(-230.000000, -201.000000)" fill="#00FF5A" fill-rule="nonzero">
            <g id="编组-6" transform="translate(220.000000, 178.000000)">
                <g id="标签" transform="translate(0.000000, 12.000000)">
                    <g id="编组" transform="translate(10.000000, 11.000000)">
                        <path d="M13.4492052,10.510153 L9.2184171,6.32791284 L9.7214108,5.83069096 C9.73251311,5.81627395 9.74197211,5.80068985 9.74961605,5.78422163 C10.3677965,6.15408543 11.1687686,6.00222124 11.6046455,5.43250831 C12.0405225,4.86279537 11.9702651,4.05957908 11.4419313,3.5722813 L8.24533585,0.41236654 C7.98053562,0.148449552 7.62007831,0 7.24404934,0 C6.86802037,0 6.50756306,0.148449552 6.24276283,0.41236654 C5.8105182,0.843146062 5.70977128,1.50082158 5.99361642,2.03879325 C5.97000586,2.04997596 5.94789791,2.06402512 5.92780417,2.08061565 L2.72650786,5.24517735 C2.71081439,5.26417865 2.69666755,5.28437849 2.68419998,5.30558748 C2.06589657,4.98673038 1.30467643,5.16249364 0.893238366,5.7191147 C0.481800298,6.27573576 0.543708733,7.04604835 1.03889351,7.53146861 L4.24018982,10.7006772 C4.73975759,11.2082523 5.54491462,11.2649355 6.11220689,10.8324675 C6.67949917,10.3999995 6.82865668,9.61580694 6.45900311,9.00919346 L6.50601187,8.98131185 L6.84917579,8.64208571 L11.0799639,12.8243258 C11.4082834,13.1534198 11.8454862,13.3546667 12.3115933,13.3912536 L12.4385169,13.3912536 C12.8595984,13.3918946 13.2630758,13.2243116 13.5573253,12.9265584 C14.1872071,12.224352 14.1393438,11.1546438 13.4492052,10.510153 L13.4492052,10.510153 Z M6.9055863,1.06758416 C6.99544968,0.979446671 7.11747485,0.930861624 7.24404934,0.932823088 C7.36900002,0.932108967 7.48909714,0.980599831 7.57781151,1.06758416 L10.7791078,4.23214585 C10.8699927,4.32020445 10.9208773,4.44092615 10.9201421,4.56672506 C10.9196126,4.69091245 10.8688267,4.80972648 10.7791078,4.89665734 C10.6908411,4.98462967 10.5706886,5.03411285 10.4453456,5.03411285 C10.3200027,5.03411285 10.1998502,4.98462967 10.1115835,4.89665734 L6.9055863,1.71350791 C6.72946626,1.53339434 6.72946626,1.24769773 6.9055863,1.06758416 Z M5.57993937,10.0408127 C5.49007599,10.1289502 5.36805082,10.1775352 5.24147632,10.1755738 C5.11652565,10.1762879 4.99642853,10.127797 4.90771415,10.0408127 L1.70171698,6.87625099 C1.56195874,6.74322405 1.51923109,6.53898777 1.5941476,6.36207417 C1.66906412,6.18516057 1.84623275,6.07191764 2.04018002,6.07697844 C2.1651307,6.07626432 2.28522782,6.12475518 2.37394219,6.21173951 L5.57993937,9.3763012 C5.6703902,9.46372883 5.72137722,9.58350392 5.72137722,9.70855694 C5.72137722,9.83360997 5.6703902,9.95338506 5.57993937,10.0408127 L5.57993937,10.0408127 Z M5.83848753,8.3214473 L3.3940322,5.89574803 L6.5953285,2.73118634 L9.04448471,5.15223868 L5.83848753,8.3214473 Z M12.889801,12.3038693 C12.7505562,12.4325379 12.5626005,12.496723 12.3727047,12.4804528 C12.1322227,12.4586981 11.9073465,12.3533134 11.7380864,12.183049 L7.50729838,8.00080889 L8.53208926,6.98313046 L12.7628773,11.1653706 C13.1131686,11.4444354 13.1775417,11.9473522 12.9086045,12.3038693 L12.889801,12.3038693 Z M4.8607054,14 L0.470087563,14 C0.210465371,14 0,13.7919497 0,13.5353067 C0,13.2786636 0.210465371,13.0706133 0.470087563,13.0706133 L4.8607054,13.0706133 C5.12032759,13.0706133 5.33079296,13.2786636 5.33079296,13.5353067 C5.33079296,13.7919497 5.12032759,14 4.8607054,14 L4.8607054,14 Z" id="paimai"></path>
                    </g>
                </g>
            </g>
        </g>
    </g>
</svg>