<?xml version="1.0" encoding="UTF-8"?>
<svg width="95px" height="95px" viewBox="0 0 95 95" version="1.1" xmlns="http://www.w3.org/2000/svg" xmlns:xlink="http://www.w3.org/1999/xlink">
    <title>质押分红</title>
    <g id="页面-1" stroke="none" stroke-width="1" fill="none" fill-rule="evenodd">
        <g id="4.1My-NFT-无" transform="translate(-290.000000, -639.000000)">
            <g id="编组-6备份" transform="translate(220.000000, 609.000000)">
                <g id="编组-2" transform="translate(70.000000, 30.000000)">
                    <circle id="椭圆形" fill-opacity="0.1" fill="#FFAE00" cx="47.5" cy="47.5" r="47.5"></circle>
                    <g id="线性深蓝色金融商务验证图标" transform="translate(24.000000, 24.000000)">
                        <g id="编组" transform="translate(0.000000, -0.000000)" fill="#FFAE00" fill-rule="nonzero">
                            <polygon id="路径" fill-opacity="0.5" points="36.608167 8.9756825 23.2679514 22.3101629 17.7104841 16.7526956 13.2656573 21.1975224 23.2679514 31.1998165 41.0529938 13.414774"></polygon>
                            <path d="M38.4549209,7.10542736e-15 L38.5753613,0.871759578 C39.0399174,4.23262216 41.827254,6.75040147 45.6641432,7.28951594 L46.5359027,7.40995641 L46.5359027,28.6820372 C46.5359027,34.9392062 40.8235834,40.3360863 36.0231705,43.7485662 C31.0105529,47.3273687 25.1491168,50 23.2736866,50 C21.3925212,50 15.5310851,47.3331039 10.5127323,43.7428309 C5.71231934,40.330351 1.59872116e-12,34.9506768 1.59872116e-12,28.6763019 L1.59872116e-12,7.40422115 L0.877494838,7.28951594 C4.71438403,6.74466621 7.49598532,4.23835742 7.96627667,0.871759578 L8.08671714,7.10542736e-15 L38.4549209,7.10542736e-15 Z M36.740078,2.02454691 L9.80729525,2.02454691 C8.94700619,5.60908465 6.01055288,8.29892177 2.02454691,9.14200505 L2.02454691,28.6877724 C2.02454691,38.8391833 21.0197293,47.9754531 23.2736866,47.9754531 C24.2429456,47.9754531 29.5079147,45.9164946 34.8646479,42.1025465 C38.4721266,39.5388851 44.5228263,34.382886 44.5228263,28.6820372 L44.5228263,9.14200505 C40.5310851,8.31039229 37.5946318,5.60908465 36.740078,2.02454691 Z M27.9880707,8.90112411 L27.2654279,10.7880248 C21.6334022,8.64303739 15.2615279,10.4037623 11.5393439,15.1410874 C7.8171599,19.8784125 7.60495526,26.4854324 11.0231705,31.4521679 C14.4356504,36.4189034 20.6870842,38.5810966 26.4395504,36.7974306 C32.1920165,35.0137646 36.1206699,29.691443 36.1264051,23.6636843 L38.1452168,23.6636843 C38.1394815,32.3984859 31.0621702,39.4700619 22.3331039,39.4757972 C15.9899059,39.4757972 10.2661161,35.6847901 7.7884836,29.846295 C5.31085111,24.0078 6.55540262,17.2573985 10.9600826,12.6921312 C15.3590273,8.12686396 22.0635467,6.63569626 27.9880707,8.90112411 Z M36.6196375,7.53613214 L42.4868089,13.414774 L23.2736866,32.6336316 L11.8375774,21.2032576 L17.7162193,15.3246157 L23.2736866,20.882083 L36.6196375,7.53613214 Z M36.608167,10.3980271 L23.2622161,23.7497132 L17.7162193,18.1922459 L14.6994724,21.2032576 L23.2736866,29.7717366 L39.624914,13.414774 L36.608167,10.3980271 Z" id="形状结合"></path>
                        </g>
                        <g id="编组" transform="translate(11.837577, 7.536132)"></g>
                    </g>
                </g>
            </g>
        </g>
    </g>
</svg>