<?xml version="1.0" encoding="UTF-8"?>
<svg width="14px" height="14px" viewBox="0 0 14 14" version="1.1" xmlns="http://www.w3.org/2000/svg" xmlns:xlink="http://www.w3.org/1999/xlink">
    <title>weishangjia</title>
    <g id="页面-1" stroke="none" stroke-width="1" fill="none" fill-rule="evenodd">
        <g id="4.2My-NFT-常规" transform="translate(-995.000000, -201.000000)" fill="#FFFFFF">
            <g id="编组-6" transform="translate(220.000000, 178.000000)">
                <g id="标签" transform="translate(765.000000, 12.000000)">
                    <path d="M17,11 C20.8659932,11 24,14.1340068 24,18 C24,21.8659932 20.8659932,25 17,25 C13.1340068,25 10,21.8659932 10,18 C10,14.1340068 13.1340068,11 17,11 Z M17,12 C13.6862915,12 11,14.6862915 11,18 C11,21.3137085 13.6862915,24 17,24 C20.3137085,24 23,21.3137085 23,18 C23,14.6862915 20.3137085,12 17,12 Z M17,14 C17.2761424,14 17.5,14.2238576 17.5,14.5 L17.5,17.5 L19,17.5 C19.2761424,17.5 19.5,17.7238576 19.5,18 C19.5,18.2761424 19.2761424,18.5 19,18.5 L17,18.5 C16.7238576,18.5 16.5,18.2761424 16.5,18 L16.5025751,17.9510591 L16.500649,17.925698 L16.500649,17.925698 L16.5,14.5 C16.5,14.2238576 16.7238576,14 17,14 Z" id="weishangjia"></path>
                </g>
            </g>
        </g>
    </g>
</svg>