<?xml version="1.0" encoding="UTF-8"?>
<svg width="26px" height="26px" viewBox="0 0 26 26" version="1.1" xmlns="http://www.w3.org/2000/svg" xmlns:xlink="http://www.w3.org/1999/xlink">
    <title>reddit </title>
    <g id="页面-1" stroke="none" stroke-width="1" fill="none" fill-rule="evenodd" fill-opacity="0.5">
        <g id="1.1首页" transform="translate(-380.000000, -2513.000000)" fill="#FFFFFF" fill-rule="nonzero">
            <g id="footer" transform="translate(0.000000, 2476.000000)">
                <path d="M395.887625,53.9316875 C396.042542,54.0866042 396.042542,54.2366458 395.887625,54.3818125 C395.288,54.9814375 394.325458,55.28125 393,55.28125 C391.674542,55.28125 390.712,54.9814375 390.112375,54.3818125 C389.957458,54.2366458 389.957458,54.0866042 390.112375,53.9316875 C390.170333,53.8737292 390.242917,53.84475 390.330125,53.84475 C390.417333,53.84475 390.489917,53.8737292 390.547875,53.9316875 C391.012083,54.4056458 391.829458,54.642625 393,54.642625 C394.160792,54.642625 394.978167,54.4056458 395.452125,53.9316875 C395.510083,53.8737292 395.582667,53.84475 395.669875,53.84475 C395.757083,53.84475 395.829667,53.8737292 395.887625,53.9316875 Z M391.432687,51.3056875 C391.432687,51.6637292 391.307021,51.9684167 391.055688,52.21975 C390.804354,52.4710834 390.499667,52.59675 390.141625,52.59675 C389.783583,52.59675 389.476458,52.4710833 389.22025,52.21975 C388.964042,51.9684167 388.835937,51.6637292 388.835937,51.3056875 C388.835937,50.9378958 388.964042,50.6283333 389.22025,50.377 C389.476458,50.1256666 389.783583,50 390.141625,50 C390.499667,50 390.804354,50.1281042 391.055688,50.3843125 C391.307021,50.6405208 391.432687,50.9476458 391.432687,51.3056875 L391.432687,51.3056875 Z M397.164063,51.3056875 C397.164063,51.6637292 397.035958,51.9684167 396.77975,52.21975 C396.523542,52.4710834 396.216417,52.59675 395.858375,52.59675 C395.500333,52.59675 395.195646,52.4710833 394.944312,52.21975 C394.692979,51.9684167 394.567313,51.6637292 394.567313,51.3056875 C394.567313,50.9476458 394.692979,50.6405208 394.944312,50.3843125 C395.195646,50.1281042 395.500333,50 395.858375,50 C396.216417,50 396.523542,50.1256666 396.77975,50.377 C397.035958,50.6283333 397.164063,50.9378958 397.164063,51.3056875 Z M400.805688,49.5645 C400.805688,49.0905417 400.636417,48.6842917 400.297875,48.34575 C399.959333,48.0072083 399.548208,47.8379375 399.0645,47.8379375 C398.580792,47.8379375 398.164792,48.0120833 397.8165,48.360375 C396.559292,47.4899167 395.055083,47.0257083 393.303875,46.96775 L394.217937,42.861375 L397.119375,43.514625 C397.119375,43.8726667 397.245042,44.1773542 397.496375,44.4286875 C397.747708,44.6800209 398.052396,44.8056875 398.410437,44.8056875 C398.768479,44.8056875 399.075604,44.6775833 399.331812,44.421375 C399.588021,44.1651667 399.716125,43.8580417 399.716125,43.5 C399.716125,43.1419583 399.588021,42.8348333 399.331812,42.578625 C399.075604,42.3224167 398.768479,42.1943125 398.410437,42.1943125 C397.888271,42.1943125 397.50125,42.4361667 397.249375,42.919875 L394.04325,42.2089375 C393.859625,42.1607292 393.738833,42.2381875 393.680875,42.4413125 L392.679875,46.96775 C390.938958,47.0354583 389.4445,47.5045417 388.1965,48.375 C387.857958,48.0169583 387.437083,47.8379375 386.933875,47.8379375 C386.450167,47.8379375 386.039042,48.0072083 385.7005,48.34575 C385.361958,48.6842917 385.192687,49.0905417 385.192687,49.5645 C385.192687,49.9030417 385.282062,50.2126042 385.460812,50.4931875 C385.639562,50.7737709 385.878979,50.9866459 386.179062,51.1318125 C386.121104,51.3928959 386.092125,51.6637292 386.092125,51.9443125 C386.092125,53.3179792 386.769208,54.493125 388.123375,55.46975 C389.477542,56.446375 391.107417,56.9349584 393.013,56.9355 C394.928333,56.9355 396.563083,56.4469167 397.91725,55.46975 C399.271417,54.4925834 399.9485,53.3174375 399.9485,51.9443125 C399.9485,51.6350209 399.914646,51.3593125 399.846937,51.1171875 C400.137271,50.9720209 400.369375,50.7615834 400.54325,50.485875 C400.717125,50.2101667 400.804062,49.9030417 400.804062,49.5645 L400.805688,49.5645 Z M406,50 C406,51.7604167 405.656583,53.443375 404.96975,55.048875 C404.282917,56.654375 403.359104,58.0375208 402.198313,59.1983125 C401.037521,60.3591042 399.654375,61.2829167 398.048875,61.96975 C396.443375,62.6565833 394.760417,63 393,63 C391.239583,63 389.556625,62.6565833 387.951125,61.96975 C386.345625,61.2829167 384.962479,60.3591042 383.801687,59.1983125 C382.640896,58.0375208 381.717083,56.654375 381.03025,55.048875 C380.343417,53.443375 380,51.7604167 380,50 C380,48.2395833 380.343417,46.556625 381.03025,44.951125 C381.717083,43.345625 382.640896,41.9624792 383.801687,40.8016875 C384.962479,39.6408958 386.345625,38.7170833 387.951125,38.03025 C389.556625,37.3434167 391.239583,37 393,37 C394.760417,37 396.443375,37.3434167 398.048875,38.03025 C399.654375,38.7170833 401.037521,39.6408958 402.198313,40.8016875 C403.359104,41.9624792 404.282917,43.345625 404.96975,44.951125 C405.656583,46.556625 406,48.2395833 406,50 L406,50 Z" id="reddit-"></path>
            </g>
        </g>
    </g>
</svg>