<?xml version="1.0" encoding="UTF-8"?>
<svg width="95px" height="95px" viewBox="0 0 95 95" version="1.1" xmlns="http://www.w3.org/2000/svg" xmlns:xlink="http://www.w3.org/1999/xlink">
    <title>售卖分红</title>
    <g id="页面-1" stroke="none" stroke-width="1" fill="none" fill-rule="evenodd">
        <g id="4.1My-NFT-无" transform="translate(-800.000000, -639.000000)">
            <g id="编组-6备份-3" transform="translate(730.000000, 609.000000)">
                <g id="售卖分红" transform="translate(70.000000, 30.000000)">
                    <circle id="椭圆形" fill-opacity="0.1" fill="#FFAE00" cx="47.5" cy="47.5" r="47.5"></circle>
                    <g id="线性深蓝色金融商务钱堆图标" transform="translate(23.000000, 25.000000)" fill-rule="nonzero">
                        <path d="M18.6650312,11.3910124 C19.4214454,11.3910124 23.3057344,4.21529945 24.1643668,3.11645451 C24.4607993,2.73824742 24.5170193,2.54914387 24.2972503,2.27315491 C24.0723704,1.99716595 23.5612798,2.01760958 22.99908,2.17604769 C21.9513442,2.47759118 20.6633957,2.17604769 19.22212,1.74673153 C16.3037923,0.923875551 12.0821834,-0.241411171 10.3904733,2.77913467 C10.2269243,3.07556726 10.3393642,3.03979091 10.6664622,3.39244348 C11.55576,4.35329393 15.2918328,11.3859015 16.0533579,11.3859015 L18.6650312,11.3859015 L18.6650312,11.3910124 Z" id="路径" fill-opacity="0.5" fill="#FFAE00"></path>
                        <path d="M19.4316672,0.959651898 C20.7042829,1.33785899 21.9155678,1.62918067 22.7588674,1.38896806 C23.7708269,1.10275728 24.5016866,1.22541905 24.9463355,1.76717515 C25.6465297,2.61558566 25.0536645,3.38222166 24.8287846,3.65309972 C24.6039047,3.92397777 23.9088214,5.0943754 23.2086272,6.26988393 C23.0873155,6.47297015 22.9697956,6.66923697 22.8559123,6.85890988 L22.525017,7.40837232 C22.1500543,8.02898509 21.8180329,8.57104727 21.5222312,9.04432624 L21.377,9.274 C29.8397873,14.6415377 33.6451002,23.5012206 33.6451002,28.170119 C33.6500547,39.940692 21.7461194,40.297376 17.2265881,40.3081846 L16.8251048,40.3085224 C5.49422468,40.3085224 1.25766064e-12,36.2964606 1.25766064e-12,28.0423464 C1.25766064e-12,22.967216 3.95073086,13.6909204 12.7363794,8.98888628 C12.8329066,8.93722914 12.9408948,8.88173315 13.059529,8.82409965 C12.7269184,8.2874039 12.3495191,7.66779534 11.9186344,6.95474543 C11.1622202,5.71279511 10.3240315,4.31240668 10.0327098,3.99041956 C9.97137892,3.92397777 9.92026986,3.8728687 9.8793826,3.83709236 C9.43473372,3.4895507 9.33251559,2.86090918 9.6442809,2.39070577 C11.6784218,-1.24314888 16.5337831,0.12657411 19.4316672,0.959651898 Z M13.9805181,10.2718633 L13.841445,10.3367487 C13.7447064,10.3844595 13.6489086,10.4343436 13.5541245,10.4863819 C4.5947051,15.2906342 1.70193192,24.3880481 1.70193192,28.0423464 C1.70193192,35.2487248 6.5061842,38.6168123 16.8097721,38.6168123 C27.2666871,38.6168123 31.9176122,35.3969411 31.9176122,28.1803408 C31.9176122,24.0219409 28.2617654,15.68331 20.4292967,10.7181195 C19.51216,12.0333912 19.1286399,12.2445338 18.6650312,12.2445338 L16.0533579,12.2445338 C15.5002689,12.2445338 15.0570678,11.8985038 13.9805181,10.2718633 Z M17.5,19 L17.5,20.749 L17.6837371,20.7490825 C19.0943473,20.7490825 20.2340795,21.8939256 20.2340795,23.3045359 L18.5321476,23.3045359 C18.5321476,22.8343325 18.1539405,22.4561254 17.6837371,22.4561254 L15.9818052,22.4561254 C15.5116018,22.4561254 15.1333947,22.8343325 15.1333947,23.3045359 L15.1333947,23.7798502 C15.1333947,24.1478355 15.3684964,24.4749335 15.716038,24.5873735 L18.4912603,25.5124476 C19.5338853,25.8599892 20.2391904,26.8361724 20.2340795,27.9350173 L20.2340795,28.389888 C20.2391904,29.0696386 19.9683124,29.7238347 19.4878872,30.2042599 C19.0074619,30.6795742 18.3532659,30.9504523 17.6786262,30.9504523 L17.5,30.95 L17.5,32.6 L16.5,32.6 L16.5,30.95 L15.9766943,30.9504523 C15.2969437,30.9504523 14.6478585,30.6795742 14.1674333,30.199149 C13.6870081,29.7187238 13.4212409,29.0645277 13.4263518,28.389888 L15.1282838,28.389888 C15.1282838,28.8600914 15.5064909,29.2382985 15.9766943,29.2382985 L17.6786262,29.2382985 C17.9035061,29.2382985 18.1232751,29.1514131 18.2817132,28.992975 C18.4401513,28.8345369 18.5321476,28.6147679 18.5321476,28.389888 L18.5321476,27.9299064 C18.5321476,27.567032 18.2970459,27.239934 17.9495042,27.1274941 L15.1742819,26.1973091 C14.131657,25.8497674 13.4263518,24.8735842 13.4314627,23.7747393 L13.4314627,23.3045359 C13.4314627,21.8939256 14.5711949,20.7541934 15.9818052,20.7490825 L16.5,20.749 L16.5,19 L17.5,19 Z M13.5899008,12.5000792 L14.3923132,14.0129075 C7.66124911,17.6212077 5.47378105,24.4749335 5.47378105,27.2297122 L3.77184913,27.2297122 C3.77184913,23.3045359 6.82306041,16.1390447 13.5899008,12.5000792 Z M16.9528774,9.57664055 C16.5198443,9.58593311 16.0901902,9.63307172 15.6685845,9.71682761 L15.6958317,9.75686439 C15.9406764,10.1089864 16.1517984,10.3854971 16.3037923,10.537491 L18.4452622,10.537491 C18.5646441,10.4102161 18.7255467,10.1997093 18.914366,9.93130343 C18.2889019,9.70333673 17.6257252,9.58292885 16.9528774,9.57664055 Z M11.3462128,2.86602009 C12.0872943,3.88820142 12.7670449,4.95127001 13.3803537,6.05522585 C13.7525055,6.67761762 14.2231119,7.46201212 14.6872975,8.20652372 C16.0875905,7.81471148 17.9382113,7.6492334 19.8788269,8.46146561 C20.534602,7.4202563 21.2503365,6.22298313 21.7520188,5.38058617 C22.4062149,4.28685214 22.8866401,3.49466161 23.2086272,2.99890366 C21.9462333,3.35155622 20.5407339,2.99890366 18.9767965,2.56447659 C15.7415926,1.64451339 12.7312685,0.990317338 11.3462128,2.86602009 Z" id="形状结合" fill="#FFAE00"></path>
                        <path d="M31.2838598,17.3452187 C27.9924359,17.3452187 25.3296535,18.47984 25.3296535,19.900672 L25.3296535,41.1620438 C25.3296535,42.572654 27.9975468,43.7174971 31.2838598,43.7174971 C34.5701727,43.7174971 37.238066,42.5828759 37.238066,41.1620438 L37.238066,19.8955611 C37.238066,18.4849509 34.5752837,17.3452187 31.2838598,17.3452187 L31.2838598,17.3452187 Z M43.1922723,26.6981779 C39.9008484,26.6981779 37.238066,27.8327992 37.238066,29.2536312 L37.238066,37.75818 C37.238066,39.1687902 39.9059593,40.3136333 43.1922723,40.3136333 C46.4785853,40.3136333 49.1464786,39.179012 49.1464786,37.75818 L49.1464786,29.2485203 C49.1464786,27.843021 46.4785853,26.6981779 43.1922723,26.6981779 L43.1922723,26.6981779 Z" id="形状" fill="#3A312A"></path>
                        <path d="M50,37.75818 C49.9948891,39.9865353 46.5756925,41.1569329 43.1922723,41.1569329 C41.294759,41.1569329 39.3972458,40.7937183 38.0911787,40.0841877 L38.0915874,41.1569329 C38.0864765,43.3903991 34.66728,44.5607967 31.2838598,44.5607967 C27.8851068,44.5607967 24.4863539,43.39551 24.4863539,41.1620438 L24.4863539,19.8955611 C24.4863539,17.6672058 27.9106614,16.5019191 31.2838598,16.5019191 C34.6596101,16.5019191 38.0761858,17.6654412 38.0813598,19.8955986 L38.0915874,19.8955611 L38.0905475,26.9324976 C39.4011615,26.2197563 41.3047186,25.8548783 43.1922723,25.8548783 C46.5705816,25.8548783 49.9897782,27.020165 49.9897782,29.2536312 L50,29.2536312 L50,37.75818 Z M36.3899347,39.2294628 C35.0788177,39.9425811 33.1757457,40.3085224 31.2838598,40.3085224 C29.3886762,40.3085224 27.4934927,39.9461992 26.1875796,39.2383891 L26.1882858,41.1569329 C26.1882858,41.754909 28.1253194,42.8588648 31.2889707,42.8588648 C34.4526219,42.8588648 36.3896555,41.754909 36.3896555,41.1569329 L36.3899347,39.2294628 Z M43.1922723,36.9046585 C41.2975806,36.9046585 39.4028889,36.5425234 38.097009,35.8350762 L38.0966984,37.75818 C38.0966984,38.3612669 40.033732,39.4601119 43.1973832,39.4601119 C46.3610344,39.4601119 48.2980681,38.356156 48.2980681,37.75818 L48.298274,35.8265322 C46.9871594,36.5387308 45.0841231,36.9046585 43.1922723,36.9046585 Z M36.3899347,34.9750844 C35.0788177,35.6867938 33.1757457,36.0511371 31.2838598,36.0511371 C29.3886762,36.0511371 27.4934927,35.6888139 26.1875796,34.9810038 L26.1882858,36.9046585 C26.1882858,37.5077455 28.1253194,38.6065905 31.2889707,38.6065905 C34.4526219,38.6065905 36.3896555,37.5026346 36.3896555,36.9046585 L36.3899347,34.9750844 Z M43.1922723,32.6523842 C41.2971549,32.6523842 39.4020375,32.2900863 38.0961288,31.5823249 L38.0966984,33.5059056 C38.0966984,34.1089926 40.033732,35.2078375 43.1973832,35.2078375 C46.3610344,35.2078375 48.2980681,34.1038817 48.2980681,33.5059056 L48.2983092,31.5742292 C46.9893748,32.2873234 45.0860201,32.6523842 43.1922723,32.6523842 Z M26.1875796,30.7133967 L26.1882858,32.6523842 C26.1882858,33.2554712 28.1253194,34.3543161 31.2889707,34.3543161 C34.4526219,34.3543161 36.3896555,33.2503603 36.3896555,32.6523842 L36.3899347,30.7222709 C35.0788177,31.4303727 33.1757457,31.7835301 31.2838598,31.7835301 C29.3886762,31.7835301 27.4934927,31.4212069 26.1875796,30.7133967 Z M43.1922723,27.5516993 C40.0303555,27.5516993 38.0937118,28.654445 38.0915892,29.2526473 L38.0966984,29.2536312 C38.0915874,29.8516073 40.0286211,30.9555632 43.1922723,30.9555632 C46.3559235,30.9555632 48.2929673,29.8516073 48.2929673,29.2536312 C48.2980681,28.6556552 46.3610344,27.5516993 43.1922723,27.5516993 Z M36.3899347,26.4726397 C35.0788177,27.185758 33.1757457,27.5516993 31.2838598,27.5516993 C29.3886762,27.5516993 27.4934927,27.1893761 26.1875796,26.481566 L26.1882858,28.3847771 C26.1882858,28.9827532 28.1253194,30.086709 31.2889707,30.086709 C34.4526219,30.086709 36.3896555,28.9827532 36.3896555,28.3847771 L36.3899347,26.4726397 Z M36.3898966,22.22127 C35.0809623,22.9343642 33.1776076,23.299425 31.2838598,23.299425 C29.3886762,23.299425 27.4934927,22.9371018 26.1875796,22.2292917 L26.1882858,24.1478355 C26.1882858,24.7509225 28.1253194,25.8497674 31.2889707,25.8497674 C34.4526219,25.8497674 36.3896555,24.7458116 36.3896555,24.1478355 L36.3898966,22.22127 Z M31.2838598,18.1834074 L31.2838598,18.1936292 C28.1202085,18.1936292 26.1831749,19.297585 26.1831749,19.8955611 L26.1882858,19.8955611 L26.1873539,19.9419191 L26.1888281,19.9530253 C26.3054374,20.5608275 28.2190726,21.5872712 31.2838598,21.5872712 C34.447511,21.5872712 36.3845446,20.4833154 36.3845446,19.8853393 C36.3845446,19.2873632 34.4321783,18.1834074 31.2838598,18.1834074 Z" id="形状结合" fill="#FFAE00"></path>
                    </g>
                </g>
            </g>
        </g>
    </g>
</svg>