<?xml version="1.0" encoding="UTF-8"?>
<svg width="20px" height="20px" viewBox="0 0 20 20" version="1.1" xmlns="http://www.w3.org/2000/svg" xmlns:xlink="http://www.w3.org/1999/xlink">
    <title>success</title>
    <g id="页面-1" stroke="none" stroke-width="1" fill="none" fill-rule="evenodd">
        <g id="6.2.1铸造成功" transform="translate(-500.000000, -233.000000)" fill="#00FF5A" fill-rule="nonzero">
            <g id="弹窗" transform="translate(450.000000, 180.000000)">
                <g id="编组-9" transform="translate(50.000000, 50.000000)">
                    <g id="编组" transform="translate(0.000000, 3.000000)">
                        <path d="M10,0 C11.4166667,0 12.8333333,0.33333334 14.0833333,0.91666666 C14.5,1.08333332 14.6666667,1.58333332 14.5,2 C14.3333333,2.41666666 13.8333333,2.58333334 13.4166667,2.41666666 C12.3333333,1.91666666 11.1666667,1.66666666 10,1.66666666 C7.75,1.66666666 5.66666666,2.5 4.08333334,4.08333334 C2.5,5.66666668 1.66666666,7.75 1.66666666,10 C1.66666666,12.25 2.5,14.3333333 4.08333334,15.9166667 C5.66666666,17.5 7.75,18.3333333 10,18.3333333 C12.25,18.3333333 14.3333333,17.5 15.9166667,15.9166667 C17.5,14.3333333 18.3333333,12.25 18.3333333,10 C18.3333333,9.5 18.6666667,9.16666666 19.1666667,9.16666666 C19.6666666,9.16666666 20,9.5 20,10 C20,12.6666667 19,15.1666667 17.0833333,17.0833333 C15.1666667,19 12.6666667,20 10,20 C7.33333334,20 4.83333334,19 2.91666666,17.0833333 C1,15.1666667 1.77635684e-15,12.6666667 1.77635684e-15,10 C1.77635684e-15,7.33333334 1,4.83333334 2.91666666,2.91666666 C4.83333332,1 7.33333334,0 10,0 Z M18.0833333,4.41666666 C18.4166667,4.75 18.4166667,5.25 18.0833333,5.58333334 L10.5833333,13.0833333 C10.4166667,13.25 10.25,13.3333333 10,13.3333333 C9.75,13.3333333 9.58333334,13.25 9.41666666,13.0833333 L5.66666666,9.33333334 C5.33333332,9 5.33333332,8.5 5.66666666,8.16666666 C6,7.83333332 6.5,7.83333332 6.83333334,8.16666666 L10,11.3333333 L16.9166667,4.41666666 C17.25,4.08333332 17.75,4.08333332 18.0833333,4.41666666 Z" id="success"></path>
                    </g>
                </g>
            </g>
        </g>
    </g>
</svg>