<?xml version="1.0" encoding="UTF-8"?>
<svg width="26px" height="26px" viewBox="0 0 26 26" version="1.1" xmlns="http://www.w3.org/2000/svg" xmlns:xlink="http://www.w3.org/1999/xlink">
    <title>telegram</title>
    <g id="页面-1" stroke="none" stroke-width="1" fill="none" fill-rule="evenodd" fill-opacity="0.5">
        <g id="1.1首页" transform="translate(-260.000000, -2513.000000)" fill="#FFFFFF" fill-rule="nonzero">
            <g id="footer" transform="translate(0.000000, 2476.000000)">
                <path d="M273,37 C265.818548,37 260,42.8185484 260,50 C260,57.1814516 265.818548,63 273,63 C280.181452,63 286,57.1814516 286,50 C286,42.8185484 280.181452,37 273,37 Z M279.384677,45.9060484 L277.25121,55.9600806 C277.093952,56.6729839 276.669355,56.8459677 276.077016,56.5104839 L272.827016,54.1149194 L271.259677,55.6245968 C271.086694,55.7975806 270.939919,55.9443548 270.604435,55.9443548 L270.835081,52.6366935 L276.858065,47.1955645 C277.120161,46.9649194 276.800403,46.833871 276.454435,47.0645161 L269.010887,51.7508065 L265.802823,50.7495968 C265.105645,50.5294355 265.089919,50.0524194 265.949597,49.7169355 L278.483065,44.883871 C279.064919,44.6741935 279.573387,45.0254032 279.384677,45.9060484 L279.384677,45.9060484 Z" id="telegram"></path>
            </g>
        </g>
    </g>
</svg>