<?xml version="1.0" encoding="UTF-8"?>
<svg width="26px" height="26px" viewBox="0 0 26 26" version="1.1" xmlns="http://www.w3.org/2000/svg" xmlns:xlink="http://www.w3.org/1999/xlink">
    <title>twitter</title>
    <g id="页面-1" stroke="none" stroke-width="1" fill="none" fill-rule="evenodd" fill-opacity="0.5">
        <g id="1.1首页" transform="translate(-220.000000, -2513.000000)" fill="#FFFFFF" fill-rule="nonzero">
            <g id="footer" transform="translate(0.000000, 2476.000000)">
                <path d="M234.808857,44.2196429 C233.516286,44.6904286 232.701,45.9022143 232.793857,47.2291429 L232.823571,47.7407857 L232.306357,47.6785714 C230.426,47.4380714 228.782429,46.6227857 227.385857,45.2531429 L226.703357,44.5752857 L226.528786,45.0767143 C226.157357,46.1937857 226.394143,47.3758571 227.170429,48.1697857 C227.582714,48.609 227.489857,48.6712143 226.778571,48.4112143 C226.528786,48.3276429 226.312429,48.2635714 226.292,48.2960714 C226.219571,48.3703571 226.468429,49.3193571 226.664357,49.6954286 C226.933643,50.2200714 227.479643,50.7307857 228.080429,51.0353571 L228.587429,51.2767857 L227.987571,51.2842143 C227.407214,51.2842143 227.386786,51.2953571 227.449929,51.5145 C227.655143,52.1942143 228.472286,52.9166429 229.382286,53.2286429 L230.023929,53.4487143 L229.466786,53.7839286 C228.622577,54.2705654 227.669215,54.5362932 226.695,54.5565 C226.228857,54.5676429 225.846286,54.6085 225.846286,54.6400714 C225.846286,54.7431429 227.109143,55.3290714 227.840857,55.5602857 C230.043429,56.2381429 232.658286,55.9447143 234.622214,54.7858571 C236.017857,53.9603571 237.4135,52.3195714 238.065357,50.7298571 C238.416357,49.8848571 238.767357,48.3378571 238.767357,47.5959286 C238.767357,47.1149286 238.798929,47.0517857 239.377429,46.4779286 C239.719143,46.1417857 240.038571,45.7768571 240.101714,45.6719286 C240.204786,45.4741429 240.192714,45.4741429 239.667143,45.6515 C238.789643,45.9653571 238.664286,45.9245 239.098857,45.4537143 C239.419214,45.1194286 239.801786,44.5121429 239.801786,44.3357143 C239.801786,44.3050714 239.646714,44.3570714 239.471214,44.4508571 C239.2855,44.5548571 238.871357,44.7117857 238.562143,44.8055714 L238.003143,44.9838571 L237.497071,44.6365714 C237.2185,44.4508571 236.824786,44.2391429 236.619571,44.1769286 C236.090286,44.0302143 235.284286,44.0515714 234.808857,44.2196429 M233,37 C240.180643,37 246,42.8193571 246,50 C246,57.1787857 240.180643,63 233,63 C225.819357,63 220,57.1787857 220,50 C220,42.8193571 225.819357,37 233,37" id="twitter"></path>
            </g>
        </g>
    </g>
</svg>