<?xml version="1.0" encoding="UTF-8"?>
<svg width="20px" height="20px" viewBox="0 0 20 20" version="1.1" xmlns="http://www.w3.org/2000/svg" xmlns:xlink="http://www.w3.org/1999/xlink">
    <title>user</title>
    <g id="页面-1" stroke="none" stroke-width="1" fill="none" fill-rule="evenodd">
        <g id="4.1My-NFT-无" transform="translate(-1265.000000, -29.000000)" fill="#000000" fill-rule="nonzero">
            <g id="导航" transform="translate(0.000000, 20.000000)">
                <g id="编组-18" transform="translate(30.000000, 0.000000)">
                    <g id="wallet" transform="translate(1220.000000, 0.000000)">
                        <g id="编组" transform="translate(15.000000, 9.000000)">
                            <path d="M10,12.6518219 C12.7963526,12.6518219 15.491388,13.8360324 17.3758865,15.9008097 L17.7710233,16.3259109 L17.3758865,16.7510121 C15.491388,18.8157895 12.7963526,20 10,20 C7.20364742,20 4.50861196,18.8157895 2.62411348,16.7510121 L2.2289767,16.3259109 L2.62411348,15.9008097 C4.51874367,13.8360324 7.20364742,12.6518219 10,12.6518219 Z M10,13.917004 C7.75075988,13.917004 5.59270517,14.7874494 3.97163121,16.3259109 C5.59270517,17.8643725 7.75075988,18.7348178 10,18.7348178 C12.2492401,18.7348178 14.4072948,17.8643725 16.0283688,16.3259109 C14.4072948,14.7874494 12.2492401,13.917004 10,13.917004 Z M9.98986829,1.71418435e-13 C15.5116515,1.71418435e-13 20,4.48380567 20,10 C20,11.7813765 19.5339412,13.5222672 18.6322188,15.0506073 C18.3485309,14.7064777 18.0445795,14.3825911 17.7203647,14.0789474 C18.378926,12.8340081 18.733536,11.4271255 18.733536,10 C18.733536,5.19230769 14.8125633,1.27530364 10,1.27530364 C5.18743668,1.27530364 1.26646403,5.18218623 1.26646403,10 C1.26646403,11.437247 1.61094225,12.8340081 2.27963526,14.0890688 C1.95542047,14.3927126 1.6514691,14.7165992 1.37791287,15.0506073 C0.476190476,13.5323887 0,11.7813765 0,10 C0,4.49392713 4.47821682,0.0101214575 9.98986829,1.71418435e-13 Z M10.0101317,5.34412955 C11.7730496,5.34412955 13.2117528,6.78137652 13.2117528,8.54251012 C13.2117528,10.3036437 11.7831814,11.7408907 10.0101317,11.7408907 C8.24721378,11.7408907 6.80851064,10.3036437 6.80851064,8.54251012 C6.80851064,6.78137652 8.24721378,5.34412955 10.0101317,5.34412955 Z M10.0101317,6.60931174 C8.94630193,6.60931174 8.07497467,7.47975709 8.07497467,8.54251012 C8.07497467,9.60526316 8.94630193,10.4757085 10.0101317,10.4757085 C11.0739615,10.4757085 11.9452888,9.60526316 11.9452888,8.54251012 C11.9452888,7.47975709 11.0840932,6.60931174 10.0101317,6.60931174 Z" id="user"></path>
                        </g>
                    </g>
                </g>
            </g>
        </g>
    </g>
</svg>