<?xml version="1.0" encoding="UTF-8"?>
<svg width="95px" height="95px" viewBox="0 0 95 95" version="1.1" xmlns="http://www.w3.org/2000/svg" xmlns:xlink="http://www.w3.org/1999/xlink">
    <title>投票分红</title>
    <g id="页面-1" stroke="none" stroke-width="1" fill="none" fill-rule="evenodd">
        <g id="4.1My-NFT-无" transform="translate(-545.000000, -639.000000)" fill="#FFAE00">
            <g id="编组-6备份-2" transform="translate(475.000000, 609.000000)">
                <g id="投票分红" transform="translate(70.000000, 30.000000)">
                    <circle id="椭圆形" fill-opacity="0.1" cx="47.5" cy="47.5" r="47.5"></circle>
                    <path d="M63.6932466,41.9549222 L63.6932466,46.1023497 L56.2007255,53.6319222 L56.2010451,55.0570253 C57.1854549,55.0579921 58.1696673,55.3182606 59.047806,55.8378306 C60.8073577,56.8789081 61.8664509,58.797867 61.8104142,60.8518847 L61.8107685,62.6587108 C62.4784507,62.7711541 63.1303936,63.0054923 63.7324723,63.3617255 C65.492024,64.4028029 66.5511172,66.3217619 66.4950806,68.3757795 L66.4950806,70.1596798 L69.3137255,70.1596798 L69.3137255,72.0392466 L25.3137255,72.0392466 L25.3137255,70.1596798 L27.1741432,70.1596798 L27.1741432,68.3757795 C27.1181065,66.3217619 28.1771998,64.4028029 29.9367515,63.3617255 C30.5406373,63.0044231 31.1946871,62.7697485 31.8644679,62.6577016 L31.8644132,60.8518847 C31.8083765,58.797867 32.8674698,56.8789081 34.6270215,55.8378306 C35.5085764,55.3162393 36.4970322,55.055971 37.4852717,55.0570257 L37.4847255,53.6319222 L29.9927881,46.1023497 L29.9927881,41.9549222 L63.6932466,41.9549222 Z M30.8837713,65.010567 C29.7070011,65.7083703 29.0009389,67.0026828 29.0457683,68.3757795 L29.0457683,70.1596798 L36.5434759,70.1596798 L36.5434759,68.3757795 C36.5411795,68.2916067 36.5407558,68.2076607 36.5421763,68.1239926 C36.5007064,66.8470407 35.8154387,65.67092 34.7054728,65.010567 C33.5287026,64.3127638 32.0661453,64.3127638 30.8837713,65.010567 Z M58.9749583,65.010567 C57.8702529,65.6656371 57.180369,66.8463936 57.1371031,68.1245213 C57.1396753,68.2076607 57.1392516,68.2916067 57.1369552,68.3757795 L57.1369552,70.1596798 L64.6290592,70.1596798 L64.6290592,68.3757795 C64.6738885,67.0026828 63.97343,65.7139977 62.7910561,65.010567 C61.6142859,64.3127638 60.1517285,64.3127638 58.9749583,65.010567 Z M40.253104,65.010567 C39.0763337,65.7083703 38.3702716,67.0026828 38.4151009,68.3757795 L38.4151009,70.1596798 L45.9072049,70.1596798 L45.9072049,68.3757795 C45.9049085,68.2916067 45.9044848,68.2076607 45.9059052,68.1239926 C45.8644354,66.8470407 45.1791677,65.67092 44.0692018,65.010567 C42.8924316,64.3127638 41.4298742,64.3127638 40.253104,65.010567 Z M49.616833,65.010567 C48.4400627,65.7083703 47.7340006,67.0026828 47.7788299,68.3757795 L47.7788299,70.1596798 L55.2653302,70.1596798 L55.2653302,68.3757795 C55.2624574,68.2704797 55.2625154,68.1655348 55.2654482,68.0610449 C55.2054278,66.8083572 54.5245766,65.6600208 53.4329308,65.010567 C52.2561605,64.3127638 50.7936032,64.3127638 49.616833,65.010567 Z M35.5740413,57.4866722 C34.3972711,58.1844755 33.6912089,59.478788 33.7360383,60.8518847 L33.7366125,62.661606 C34.3983487,62.7751487 35.0443269,63.0085218 35.6412853,63.3617255 C36.3895392,63.8044463 37.0111223,64.4059229 37.4741454,65.1090304 C37.9362472,64.4059229 38.5578303,63.8044463 39.3060841,63.3617255 C39.9063557,63.0065616 40.5561925,62.772562 41.2217763,62.6597266 L41.2225385,60.8518847 C41.21962,60.7449081 41.2197264,60.6382979 41.2227989,60.5321589 C41.1608218,59.2814043 40.4803309,58.1352609 39.3901391,57.4866722 C38.9484383,57.2247517 38.4664735,57.061143 37.974471,56.9958463 L37.4848921,56.9970844 L37.4855885,56.9633214 C36.8245907,56.9627037 36.1634663,57.137154 35.5740413,57.4866722 Z M44.9321667,57.4866722 C43.8274613,58.1417423 43.1375774,59.3224988 43.0943114,60.6006265 C43.0968836,60.6837659 43.09646,60.7677119 43.0941636,60.8518847 L43.093924,62.6595569 C43.7598574,62.7723272 44.4100452,63.0063834 45.010618,63.3617255 C45.7574499,63.803605 46.3780921,64.4036376 46.8408367,65.1050233 C47.302339,64.4036376 47.9229812,63.803605 48.6698131,63.3617255 C49.2685787,63.0074526 49.9166612,62.7737368 50.5804961,62.6605781 L50.5806638,60.8518847 C50.5777454,60.7449081 50.5778517,60.6382979 50.5809242,60.5321589 C50.5189471,59.2814043 49.8384563,58.1352609 48.7482645,57.4866722 C47.5714942,56.7888689 46.1089369,56.7888689 44.9321667,57.4866722 Z M56.2012515,56.9633203 L56.2011427,56.9970844 L55.7098176,56.9958967 C55.2171261,57.0612272 54.733982,57.2248191 54.290292,57.4866722 C53.1850078,58.1420855 52.4949799,59.3237363 52.4523693,60.6026357 C52.4536443,60.6034313 52.453666,60.6047648 52.4536872,60.6060984 L52.4522889,60.8518847 L52.4522889,60.8518847 L52.4526431,62.6587108 C53.1203254,62.7711541 53.7722683,63.0054923 54.374347,63.3617255 C55.1197571,63.8027637 55.7394574,64.4013534 56.201921,65.1010184 C56.662828,64.4013534 57.2825283,63.8027637 58.0279384,63.3617255 C58.6302802,63.0053367 59.2825298,62.7709494 59.9505176,62.6585635 L59.9499965,60.8518847 C59.9948258,59.478788 59.2943674,58.1901029 58.1119934,57.4866722 C57.5230167,57.1374197 56.8624494,56.9629691 56.2012515,56.9633203 Z M61.8216216,43.8344891 L31.8644132,43.8344891 L31.8644132,45.3257622 L37.4847255,50.9739222 L37.4848921,47.5936228 L39.3565171,47.5936228 L39.3564947,55.380929 C39.6918023,55.5002582 40.0184227,55.6525588 40.3315553,55.8378306 C41.0768193,56.2787824 41.6964228,56.8772239 42.1588573,57.5767121 C42.6202794,56.8772239 43.2398829,56.2787824 43.9851468,55.8378306 C45.7446985,54.7967532 47.930129,54.7967532 49.6896807,55.8378306 C50.4353019,56.2789938 51.0551421,56.8777977 51.5176476,57.5777181 C51.9778106,56.8777977 52.5976509,56.2789938 53.3432721,55.8378306 C53.6598118,55.650543 53.9901343,55.496948 54.3292806,55.3770456 L54.3295176,47.5936228 L56.2011427,47.5936228 L56.2007255,50.9729222 L61.8216216,45.3257622 L61.8216216,43.8344891 Z" id="形状结合" fill-rule="nonzero"></path>
                    <path d="M55.2709338,42.8947057 L55.2709338,37.0421622 C55.2709338,34.5098117 48.8603378,32.5514606 46.8486211,32.5514606 C44.8369043,32.5514606 38.4207046,34.5098117 38.4207046,37.0421622 L38.4207046,42.8947057 L55.2709338,42.8947057 Z" id="路径" fill-opacity="0.5" fill-rule="nonzero"></path>
                    <path d="M47.3137255,21 C50.1996144,21 52.4634962,23.3522723 52.4634962,26.3629557 L52.4634962,27.8542288 C52.4600242,29.7091842 51.5917445,31.3200155 50.2452039,32.2771184 C53.0022304,33.1258266 56.21235,34.7635845 56.21235,37.0421622 L56.21235,43.8344891 L37.4848921,43.8344891 L37.4848921,37.0421622 C37.4848921,34.5753198 41.2473908,32.8595658 44.1248357,32.0821673 C42.9227162,31.1092811 42.1639547,29.5848469 42.1639547,27.8429739 L42.1639547,26.3629557 C42.1639547,23.3578997 44.4222329,21 47.3137255,21 Z M46.8374137,33.491244 C44.775264,33.491244 39.3453098,35.4664774 39.3453098,37.0421622 L39.3453098,41.9549222 L54.3295176,41.9549222 L54.3295176,37.0421622 C54.3295176,35.4664774 48.8995635,33.491244 46.8374137,33.491244 Z M47.3137255,22.8795668 C46.4171386,22.8964492 45.5653811,23.273488 44.9489777,23.9318992 C44.3325742,24.5846829 44.0075615,25.4625644 44.0411835,26.3629557 L44.0411835,27.8542288 C43.9795431,29.069757 44.5903429,30.217756 45.6326251,30.8424024 C46.6693037,31.4670489 47.9693546,31.4670489 49.0060332,30.8424024 C50.0427117,30.217756 50.6535115,29.069757 50.5974749,27.8542288 L50.5974749,26.3629557 C50.6310969,25.4625644 50.3060841,24.5846829 49.6896807,23.9318992 C49.0620699,23.273488 48.2103123,22.8964492 47.3137255,22.8795668 Z" id="形状结合" fill-rule="nonzero"></path>
                </g>
            </g>
        </g>
    </g>
</svg>