<?xml version="1.0" encoding="UTF-8"?>
<svg width="14px" height="13px" viewBox="0 0 14 13" version="1.1" xmlns="http://www.w3.org/2000/svg" xmlns:xlink="http://www.w3.org/1999/xlink">
    <title>zan</title>
    <g id="页面-1" stroke="none" stroke-width="1" fill="none" fill-rule="evenodd">
        <g id="1.1首页" transform="translate(-364.000000, -1626.000000)" fill="#FFFFFF" fill-rule="nonzero">
            <g id="编组-6" transform="translate(220.000000, 1619.000000)">
                <g id="编组-5" transform="translate(139.000000, 0.000000)">
                    <g id="编组" transform="translate(5.000000, 7.000000)">
                        <path d="M9.95027518,0.00110294796 C12.1486357,0.00110294796 13.8846938,1.92174674 14,4.18179196 C14,5.5378191 13.3641997,6.49814099 12.8431667,7.28902527 C11.3387985,9.49276669 7.69426163,12.3174286 7.52076358,12.4300362 C7.34726552,12.5436962 7.17376747,12.6 7.0002694,12.6 C6.82623253,12.6 6.65273448,12.5436962 6.47923642,12.4305624 C6.30573837,12.3174286 2.60300966,9.5490705 1.15683332,7.28955147 C0.636339148,6.49761478 0,5.53676668 0,4.18126575 C0,1.92122053 1.73498057,2.51196605e-05 3.93334104,2.51196605e-05 C5.09071317,2.51196605e-05 6.1898934,0.565193389 6.94207751,1.52604149 C7.62752495,0.565979019 8.75184135,-0.00436137931 9.95027518,2.51196605e-05 L9.95027518,0.00110294796 Z M9.8926221,0.961424842 C8.67759689,0.961424842 7.57841666,1.75230912 7.11557557,2.88206863 L7.11180388,2.9199553 C7.09025132,3.01888161 6.98733788,3.10833625 6.88442443,3.10833625 C6.76857946,3.10833625 6.71092638,2.99520244 6.65273448,2.88206863 L6.60262479,2.76630379 C6.11392064,1.69863632 5.04922449,0.961424828 3.87622676,0.961424842 C2.19836047,0.961424842 0.867490285,2.37375579 0.867490285,4.18179196 C0.867490285,5.25524766 1.33087018,5.98982813 1.85136436,6.78071241 C3.23934881,8.92762383 6.94207751,11.6959819 6.94207751,11.6959819 C6.94207751,11.6959819 10.6448062,8.92762383 12.0333295,6.78071241 C12.5538237,5.98982813 13.0166647,5.25472145 12.9008198,4.18126575 C12.9008198,2.43005958 11.5699496,0.960898633 9.8926221,0.960898633 L9.8926221,0.961424842 Z M9.81934342,3.55034742 C10.4459839,3.55034742 10.6448062,4.38595902 10.6943771,5.04634477 C10.7401763,5.65305773 10.3123581,6.57233573 10.1189239,6.73019685 C9.80210137,6.98803671 9.21802717,6.88279594 9.18677597,6.35448736 C9.17007275,6.07612556 9.6587769,6.09349029 9.70403725,5.134747 C9.73259439,4.53855812 9.2972328,4.41069059 9.31824655,4.04708379 C9.32565193,3.77862838 9.54459601,3.56158954 9.81934342,3.55034742 L9.81934342,3.55034742 Z" id="zan"></path>
                    </g>
                </g>
            </g>
        </g>
    </g>
</svg>