<?xml version="1.0" encoding="UTF-8"?>
<svg width="40px" height="40px" viewBox="0 0 40 40" version="1.1" xmlns="http://www.w3.org/2000/svg" xmlns:xlink="http://www.w3.org/1999/xlink">
    <title>形状结合</title>
    <g id="页面-1" stroke="none" stroke-width="1" fill="none" fill-rule="evenodd">
        <g id="logo" transform="translate(-512.000000, -270.000000)" fill="#070707">
            <path d="M547.788778,287.959281 C546.787056,280.131595 540.10005,274.081633 532,274.081633 C523.208528,274.081633 516.081633,281.208528 516.081633,290 C516.081633,298.791472 523.208528,305.918367 532,305.918367 C539.232344,305.918367 545.338169,301.095165 547.276382,294.489854 L551.494086,294.48969 C549.456398,303.373569 541.502042,310 532,310 C520.954305,310 512,301.045695 512,290 C512,278.954305 520.954305,270 532,270 C543.045695,270 552,278.954305 552,290 C552,290.68899 551.96516,291.369843 551.897147,292.040894 L545.315786,292.04078 C544.33233,298.511294 538.745177,303.469388 532,303.469388 C524.561063,303.469388 518.530612,297.438937 518.530612,290 C518.530612,282.561063 524.561063,276.530612 532,276.530612 C537.864703,276.530612 542.853973,280.278788 544.702998,285.51033 L540.246476,285.510125 C538.654305,282.592001 535.558351,280.612245 532,280.612245 C526.815286,280.612245 522.612245,284.815286 522.612245,290 C522.612245,295.184714 526.815286,299.387755 532,299.387755 C537.184714,299.387755 541.387755,295.184714 541.387755,290 C541.387755,289.299219 541.31097,288.616373 541.165354,287.959415 L547.788778,287.959281 Z" id="形状结合"></path>
        </g>
    </g>
</svg>